<svg width="79" height="35" viewBox="0 0 79 35" fill="none" xmlns="http://www.w3.org/2000/svg">
    <path fill-rule="evenodd" clip-rule="evenodd" d="M70.2997 15C70.2997 15 72.3998 17.3 72.8998 20.1C72.8998 20.1 68.4997 18.2 70.2997 15Z" fill="url(#paint0_linear)"/>
    <path fill-rule="evenodd" clip-rule="evenodd" d="M70.1998 15.4L71.7997 17.6L71.1998 17.1L71.3998 17.7L71.6998 17.9L71.9998 18.3V18.7H71.7997L72.1998 18.9V19.1L72.0997 19.2H71.5997L71.2997 18.9L70.6998 18.5L70.1998 17.9V17.3L69.9998 16.6L70.1998 15.4Z" fill="#CCCCCC"/>
    <path fill-rule="evenodd" clip-rule="evenodd" d="M73.9998 30.2C74.5998 30.2 75.2998 30.1 75.8998 30.1L73.1998 21.4L63.4998 17.3L54.4998 17.6L15.2998 17.8L4.19983 19.5L2.2998 30.1H73.9998V30.2Z" fill="#404041"/>
    <path fill-rule="evenodd" clip-rule="evenodd" d="M45.9997 2.20001L44.0997 2.70001L43.1997 3.29999C43.1997 3.29999 48.4997 4.39998 53.8997 12.1L61.5997 11.2C61.4997 11.1 56.6997 5.60001 45.9997 2.20001Z" fill="#6478DF"/>
    <path fill-rule="evenodd" clip-rule="evenodd" d="M4.59954 8.5L4.09954 8.20001C3.29954 8.20001 0.399545 14.8 1.59954 15.8C1.59954 15.8 5.59954 11.9 4.59954 8.5Z" fill="url(#paint1_linear)"/>
    <path fill-rule="evenodd" clip-rule="evenodd" d="M6.7998 3.90004C7.2998 3.00004 4.59979 2.79999 5.09979 2.09999C5.09979 2.09999 30.4998 -2.00001 45.9998 2.09999L44.0998 2.59999C44.0998 2.59999 50.8998 5.20002 54.0998 11.5L61.5998 10.7C68.0998 12.2 75.2998 13.3 77.3998 20.5L77.2998 26.7L77.9998 27.4L77.7998 29.7L76.9998 29.9C76.9998 29.9 75.1998 30.4 74.2998 30.4C74.2998 30.4 74.7998 21.1 66.1998 21.2C57.9998 21 58.0998 29.6 58.0998 29.6H18.2998C18.2998 29.6 19.0998 20.8 9.69983 21.2C1.79983 21.5 2.89984 30.6 2.89984 30.6L1.69983 30.3C1.69983 30.3 0.499805 23.1 0.299805 20.8C0.299805 20.8 1.09979 19.3 1.09979 17.9C1.19979 17.9 3.0998 7.80004 6.7998 3.90004Z" fill="#3C3366"/>
    <path fill-rule="evenodd" clip-rule="evenodd" d="M78.1997 24.9L77.7997 29.7L76.9997 29.9C76.9997 29.9 75.1997 30.4 74.2997 30.4C74.2997 30.4 74.7997 21.1 66.1997 21.2C57.9997 21 58.0997 29.5999 58.0997 29.5999H18.2997C18.2997 29.5999 19.0997 20.8 9.69971 21.2C1.79971 21.5 2.89972 30.5999 2.89972 30.5999L0.999695 30.0999C0.999695 30.0999 0.599707 27.4 0.199707 24.8C0.699707 24.7 1.89969 24.6 1.99969 24.5C3.29969 20.3 6.7997 18.1 10.4997 17.9C17.0997 17.5 19.8997 24.2 20.5997 27.9C32.1997 27.8 43.8997 27.8 55.4997 27.7C57.7997 14.7 70.7997 15.5 75.7997 24.5C75.7997 24.7 77.4997 24.8 78.1997 24.9Z" fill="#2C1D50"/>
    <path fill-rule="evenodd" clip-rule="evenodd" d="M12.6997 3.79999C10.1997 3.99999 9.49971 9.50002 9.19971 11.9H29.2997L30.2997 2.40002C26.9997 2.40002 15.5997 2.69999 12.6997 3.79999ZM51.7997 11.9C50.5997 9.80002 46.0997 2.8 36.1997 2.5C34.4997 2.4 32.7997 2.40002 31.0997 2.40002L30.3997 11.9H51.7997Z" fill="#6478DF"/>
    <path fill-rule="evenodd" clip-rule="evenodd" d="M47.8998 9.40002C47.8998 9.40002 46.8998 11.2 48.1998 12.7C48.2998 12.8 52.8998 10.9 47.8998 9.40002Z" fill="#2C1D50"/>
    <path fill-rule="evenodd" clip-rule="evenodd" d="M76.2998 19.4C75.1998 16.5 73.4998 15.4 71.0998 14.2C68.7998 14 68.6998 15.7 69.6998 17.2C70.5998 18.9 74.6998 22 76.2998 19.4Z" fill="white"/>
    <path fill-rule="evenodd" clip-rule="evenodd" d="M30.6997 14.5V14.2C30.6997 13.9 30.8997 13.7 31.0997 13.7H35.4997C35.6997 13.7 35.8997 13.9 35.8997 14.2V14.5H30.6997Z" fill="#594A42"/>
    <path fill-rule="evenodd" clip-rule="evenodd" d="M21.5996 14.6V14.3C21.5996 14 21.7996 13.8 21.9996 13.8H26.3997C26.5997 13.8 26.7996 14 26.7996 14.3V14.6H21.5996Z" fill="#594A42"/>
    <path fill-rule="evenodd" clip-rule="evenodd" d="M61.5998 33C63.9998 35.4 67.9999 35.4 70.3999 33C72.7999 30.6 72.7999 26.6 70.3999 24.2C67.9999 21.8 63.9998 21.8 61.5998 24.2C59.1998 26.6 59.1998 30.6 61.5998 33ZM69.1998 31.8C67.3998 33.6 64.5998 33.6 62.7998 31.8C60.9998 30 60.9998 27.2 62.7998 25.4C64.5998 23.6 67.3998 23.6 69.1998 25.4C70.9998 27.1 70.9998 30 69.1998 31.8Z" fill="#363638"/>
    <path fill-rule="evenodd" clip-rule="evenodd" d="M65.9998 23.4C68.7998 23.4 71.1999 25.7 71.1999 28.5C71.1999 31.3 68.8998 33.7 66.0998 33.7C63.2998 33.7 60.8999 31.4 60.8999 28.6C60.7999 25.8 63.0998 23.4 65.9998 23.4Z" fill="white"/>
    <path fill-rule="evenodd" clip-rule="evenodd" d="M65.9998 24C63.4998 24 61.4998 26.1 61.4998 28.6C61.4998 31.1 63.5997 33.1 66.0997 33.1C68.5997 33.1 70.5997 31 70.5997 28.5C70.4997 26.1 68.4998 24 65.9998 24Z" fill="#525458"/>
    <path fill-rule="evenodd" clip-rule="evenodd" d="M66.8998 29.8C67.4998 29.2 67.4998 28.2 66.8998 27.6C66.2998 27 65.2998 27 64.6998 27.6C64.0998 28.2 64.0998 29.2 64.6998 29.8C65.2998 30.4 66.2998 30.4 66.8998 29.8Z" fill="#696B6F"/>
    <path fill-rule="evenodd" clip-rule="evenodd" d="M6.0998 33C8.4998 35.4 12.4999 35.4 14.8999 33C17.2999 30.6 17.2999 26.6 14.8999 24.2C12.4999 21.8 8.4998 21.8 6.0998 24.2C3.6998 26.6 3.6998 30.6 6.0998 33ZM13.6998 31.8C11.8998 33.6 9.09982 33.6 7.29982 31.8C5.49982 30 5.49982 27.2 7.29982 25.4C9.09982 23.6 11.8998 23.6 13.6998 25.4C15.4998 27.1 15.4998 30 13.6998 31.8Z" fill="#363638"/>
    <path fill-rule="evenodd" clip-rule="evenodd" d="M10.4999 23.4C13.2999 23.4 15.6999 25.7 15.6999 28.5C15.6999 31.3 13.3999 33.7 10.5999 33.7C7.79985 33.7 5.3999 31.4 5.3999 28.6C5.3999 25.8 7.59988 23.4 10.4999 23.4Z" fill="white"/>
    <path fill-rule="evenodd" clip-rule="evenodd" d="M10.4998 24C7.99976 24 5.99976 26.1 5.99976 28.6C5.99976 31.1 8.09973 33.1 10.5997 33.1C13.0997 33.1 15.0997 31 15.0997 28.5C14.9997 26.1 12.9998 24 10.4998 24Z" fill="#525458"/>
    <path fill-rule="evenodd" clip-rule="evenodd" d="M11.3998 29.8C11.9998 29.2 11.9998 28.2 11.3998 27.6C10.7998 27 9.79976 27 9.19976 27.6C8.59976 28.2 8.59976 29.2 9.19976 29.8C9.79976 30.4 10.7998 30.4 11.3998 29.8Z" fill="#696B6F"/>
    <defs>
        <linearGradient id="paint0_linear" x1="70.0938" y1="17.5754" x2="74.7746" y2="17.5754" gradientUnits="userSpaceOnUse">
            <stop stop-color="#6A878F"/>
            <stop offset="0.53" stop-color="#335C64"/>
            <stop offset="1" stop-color="#02383C"/>
        </linearGradient>
        <linearGradient id="paint1_linear" x1="0.541045" y1="12.0522" x2="5.64004" y2="12.0522" gradientUnits="userSpaceOnUse">
            <stop stop-color="#BA352E"/>
            <stop offset="0.13" stop-color="#DB4D2F"/>
            <stop offset="0.21" stop-color="#BC4A2B"/>
            <stop offset="0.33" stop-color="#D15A39"/>
            <stop offset="0.46" stop-color="#EA6B4E"/>
            <stop offset="0.62" stop-color="#EC5F3C"/>
            <stop offset="0.91" stop-color="#EB4E2C"/>
            <stop offset="1" stop-color="#BA4C24"/>
        </linearGradient>
    </defs>
</svg>
