<svg width="26" height="26" viewBox="0 0 26 26" fill="none" xmlns="http://www.w3.org/2000/svg">
    <path d="M10.4998 14.7V25.1L6.19983 22.6L4.59979 21.7L0.799805 19.5V9.09998L4.59979 11.3L6.19983 12.2L10.4998 14.7Z" fill="#D4C2A5"/>
    <path d="M25.3998 6.09998V16.5L22.3998 18.2L20.7997 19.2L15.3998 22.3L13.7997 23.2L10.4998 25.1V14.7L13.7997 12.8L15.3998 11.9L20.7997 8.79999L22.3998 7.79999L25.3998 6.09998Z" fill="#BDAD93"/>
    <path d="M25.3998 6.09998L22.3998 7.79999L20.7998 8.79999L15.3998 11.9L13.7998 12.8L10.4998 14.7L6.19983 12.3L4.59979 11.3L0.799805 9.20001V9.09998L4.2998 7.09998L5.89984 6.20001L11.2998 3L12.8998 2.09998L15.6998 0.5L19.0998 2.5L20.6998 3.40002L25.3998 6.09998Z" fill="#FBE5C3"/>
    <path opacity="0.3" d="M20.6999 3.40002L17.7999 5.09998L16.2999 6L10.9999 9.29999L9.3999 10.2L6.19989 12.1V22.6L4.59985 21.7V11.2L7.8999 9.29999L9.3999 8.29999L14.6999 5.09998L16.2999 4.20001L19.0999 2.5L20.6999 3.40002Z" fill="#1D1D1B"/>
    <path opacity="0.3" d="M15.3998 11.9V22.3L13.7998 23.2V12.8L9.39984 10.2L7.89984 9.29999L4.2998 7.09998L5.89984 6.20001L9.39984 8.29999L10.9998 9.29999L15.3998 11.9Z" fill="#1D1D1B"/>
    <path opacity="0.3" d="M22.3998 7.90002V18.2L20.7998 19.2V8.79999L16.2998 6L14.6998 5.09998L11.2998 3L12.8998 2.09998L16.2998 4.20001L17.7998 5.09998L22.3998 7.79999V7.90002Z" fill="#1D1D1B"/>
</svg>