<svg width="121" height="108" viewBox="0 0 121 108" fill="none" xmlns="http://www.w3.org/2000/svg">
    <path d="M48.6432 41.3261C35.1614 37.6595 16.2519 76.3559 20.6102 89.6016C24.2008 100.514 53.0891 85.8097 59.8086 91.9238C68.208 99.5665 77.426 90.997 77.7263 76.3309C78.0266 61.6649 74.1996 68.3496 79.777 56.8721C84.2389 47.6901 66.2631 52.1536 56.7175 55.5331C58.52 52.0196 59.4287 44.2593 48.6432 41.3261Z" fill="#6478E1"/>
    <path d="M107.43 13.4966C100.447 -3.23355 77.8069 -3.44532 44.7984 7.56695C19.6191 18.5794 6.92328 34.6739 0.998676 49.7099C-4.92593 64.7459 17.0797 77.8759 25.755 75.1228C34.4304 72.3698 57.9172 81.8996 58.1288 94.6061C58.3404 107.313 102.14 100.748 116.74 77.8759C131.34 55.0043 104.256 64.1106 97.6966 49.7099C91.1373 35.3092 114.412 30.2268 107.43 13.4966Z" fill="#F75C02"/>
    <circle cx="114.5" cy="44.5" r="3.5" fill="#F75C02"/>
    <rect x="50" y="24" width="30" height="52" rx="5" fill="white"/>
    <rect x="57" y="18" width="16" height="7" fill="white"/>
    <path d="M74.6356 21.8332H73.9448V18.1334C73.9448 17.5075 73.4373 17 72.8113 17H56.9847C56.3588 17 55.8513 17.5075 55.8513 18.1334V21.8332H55.1005C51.7938 21.8332 49 24.7607 49 28.2259V71.0655C49 74.4292 51.7367 77.166 55.1005 77.166H74.6356C77.9993 77.166 80.7361 74.4294 80.7361 71.0655V27.9338C80.7361 24.57 77.9995 21.8332 74.6356 21.8332ZM58.1181 19.2669H71.6779V22.964C71.6779 22.9649 71.6778 22.9658 71.6778 22.9666C71.6778 22.9675 71.6779 22.9685 71.6779 22.9693V27.6493H58.1181V19.2669ZM78.4693 71.0655C78.4693 73.1793 76.7494 74.8992 74.6356 74.8992H55.1007C52.9868 74.8992 51.267 73.1793 51.267 71.0655V28.2259C51.267 26.028 53.0584 24.1001 55.1007 24.1001H55.8514V27.6494H54.6415C54.0156 27.6494 53.5081 28.1569 53.5081 28.7828C53.5081 29.4088 54.0156 29.9163 54.6415 29.9163H56.9849H72.8115H75.0632C75.6891 29.9163 76.1966 29.4088 76.1966 28.7828C76.1966 28.1569 75.6891 27.6494 75.0632 27.6494H73.9449V24.1001H74.6357C76.7496 24.1001 78.4694 25.8199 78.4694 27.9338V71.0655H78.4693Z" fill="#2C1D50"/>
    <path d="M58.1016 48.8656H55.8652C54.6154 48.8656 53.5984 49.8826 53.5984 51.1325V52.2543C53.5984 53.5042 54.6154 54.5211 55.8652 54.5211H58.1016C59.3515 54.5211 60.3685 53.5042 60.3685 52.2543V51.1325C60.3685 49.8826 59.3515 48.8656 58.1016 48.8656ZM55.8652 52.2543V51.1325H58.1016L58.1018 52.2543H55.8652Z" fill="#2C1D50"/>
    <path d="M66.0394 48.8656H63.803C62.5531 48.8656 61.5361 49.8826 61.5361 51.1325V52.2543C61.5361 53.5042 62.5531 54.5211 63.803 54.5211H66.0394C67.2893 54.5211 68.3062 53.5042 68.3062 52.2543V51.1325C68.3062 49.8826 67.2894 48.8656 66.0394 48.8656ZM63.803 52.2543V51.1325H66.0394L66.0397 52.2543H63.803Z" fill="#2C1D50"/>
    <path d="M73.9312 48.8656H71.6948C70.4449 48.8656 69.428 49.8826 69.428 51.1325V52.2543C69.428 53.5042 70.4449 54.5211 71.6948 54.5211H73.9312C75.1811 54.5211 76.1981 53.5042 76.1981 52.2543V51.1325C76.1981 49.8826 75.1811 48.8656 73.9312 48.8656ZM71.6948 52.2543V51.1325H73.9312L73.9315 52.2543H71.6948Z" fill="#2C1D50"/>
    <path d="M58.1016 55.7194H55.8652C54.6154 55.7194 53.5984 56.7363 53.5984 57.9862V59.108C53.5984 60.3579 54.6154 61.3749 55.8652 61.3749H58.1016C59.3515 61.3749 60.3685 60.3579 60.3685 59.108V57.9862C60.3685 56.7362 59.3515 55.7194 58.1016 55.7194ZM55.8652 59.108V57.9862H58.1016L58.1018 59.108H55.8652Z" fill="#2C1D50"/>
    <path d="M66.0394 55.7194H63.803C62.5531 55.7194 61.5361 56.7363 61.5361 57.9862V59.108C61.5361 60.3579 62.5531 61.3749 63.803 61.3749H66.0394C67.2893 61.3749 68.3062 60.3579 68.3062 59.108V57.9862C68.3062 56.7362 67.2894 55.7194 66.0394 55.7194ZM63.803 59.108V57.9862H66.0394L66.0397 59.108H63.803Z" fill="#2C1D50"/>
    <path d="M73.9312 55.7194H71.6948C70.4449 55.7194 69.428 56.7363 69.428 57.9862V59.108C69.428 60.3579 70.4449 61.3749 71.6948 61.3749H73.9312C75.1811 61.3749 76.1981 60.3579 76.1981 59.108V57.9862C76.1981 56.7362 75.1811 55.7194 73.9312 55.7194ZM71.6948 59.108V57.9862H73.9312L73.9315 59.108H71.6948Z" fill="#2C1D50"/>
    <path d="M58.1016 62.4523H55.8652C54.6154 62.4523 53.5984 63.4692 53.5984 64.7191V65.8409C53.5984 67.0908 54.6154 68.1078 55.8652 68.1078H58.1016C59.3515 68.1078 60.3685 67.0908 60.3685 65.8409V64.7191C60.3685 63.4691 59.3515 62.4523 58.1016 62.4523ZM55.8652 65.8409V64.7191H58.1016L58.1018 65.8409H55.8652Z" fill="#2C1D50"/>
    <path d="M66.0394 62.4523H63.803C62.5531 62.4523 61.5361 63.4692 61.5361 64.7191V65.8409C61.5361 67.0908 62.5531 68.1078 63.803 68.1078H66.0394C67.2893 68.1078 68.3062 67.0908 68.3062 65.8409V64.7191C68.3062 63.4691 67.2894 62.4523 66.0394 62.4523ZM63.803 65.8409V64.7191H66.0394L66.0397 65.8409H63.803Z" fill="#2C1D50"/>
    <path d="M73.9312 62.4523H71.6948C70.4449 62.4523 69.428 63.4692 69.428 64.7191V65.8409C69.428 67.0908 70.4449 68.1078 71.6948 68.1078H73.9312C75.1811 68.1078 76.1981 67.0908 76.1981 65.8409V64.7191C76.1981 63.4691 75.1811 62.4523 73.9312 62.4523ZM71.6948 65.8409V64.7191H73.9312L73.9315 65.8409H71.6948Z" fill="#2C1D50"/>
    <path d="M67.1728 70.4004H62.6696C62.0436 70.4004 61.5361 70.9079 61.5361 71.5338C61.5361 72.1598 62.0436 72.6672 62.6696 72.6672H67.1728C67.7987 72.6672 68.3062 72.1598 68.3062 71.5338C68.3062 70.9079 67.7987 70.4004 67.1728 70.4004Z" fill="#2C1D50"/>
    <path d="M55.7735 45.5015H73.9084C75.1582 45.5015 76.1752 44.4845 76.1752 43.2346V35.1589C76.1752 33.9091 75.1582 32.8921 73.9084 32.8921H55.7735C54.5236 32.8921 53.5067 33.9091 53.5067 35.1589V43.2346C53.5067 44.4845 54.5236 45.5015 55.7735 45.5015ZM55.7735 35.1589H58.6569L60.6864 37.1883C60.9077 37.4097 61.1977 37.5203 61.4878 37.5203C61.778 37.5203 62.068 37.4097 62.2893 37.1883C62.732 36.7456 62.732 36.0281 62.2893 35.5854L61.8629 35.1589H73.9084L73.9086 43.2346H69.9387L65.6444 38.9403C65.2018 38.498 64.4842 38.4979 64.0414 38.9403C63.5987 39.3831 63.5987 40.1007 64.0414 40.5433L66.7326 43.2345H55.7735V35.1589Z" fill="#2C1D50"/>
</svg>
