<svg width="117" height="109" viewBox="0 0 117 109" fill="none" xmlns="http://www.w3.org/2000/svg">
    <circle cx="102.5" cy="17.5" r="3.5" fill="#F75C02"/>
    <path d="M19.3526 15.1855C26.5245 16.3287 23.0528 21.8949 30.8405 26.8214C38.6283 31.7478 44.4448 29.2087 44.5107 39.0303C44.5832 49.8467 31.864 44.0363 25.1988 48.5724C18.5336 53.1084 8.45243 54.6607 2.72365 45.5815C-3.00514 36.5024 6.544 36.7551 8.90813 28.5446C11.2723 20.3342 10.9441 13.8452 19.3526 15.1855Z" fill="#6478E1"/>
    <path d="M42.098 0.101074C32.1957 0.101045 21.325 3.73504 21.325 18.79C21.325 26.404 24.6487 34.6009 21.325 39.9999C17.1704 46.7487 -2.33211 53.053 7.01576 69.6654C16.3636 86.2778 42.098 100.295 59.7551 102.371C77.4122 104.448 83.6441 123.656 108.052 85.2396C127.579 54.5066 110.649 35.0563 99.7432 29.1727C91.9533 23.2892 75.1272 10.5876 70.1416 6.84983C63.9097 2.17759 52.0004 0.101074 42.098 0.101074Z" fill="#F75C02"/>
    <path d="M56.0002 38C51.1668 37.6667 41.2002 37.4 40.0002 39L39.0002 40.5C38.8335 51.6667 38.6002 74.5 39.0002 76.5C39.4002 78.5 41.8335 79 43.0002 79H82.5002C84.5002 79 85.0002 76.3333 85.0002 75L84.5002 64.5L87.0002 63.5V54L84.5002 53C84.6668 49.1667 84.7002 41 83.5002 39C82.3002 37 79.0002 37.5 77.5002 38L72.0002 30L56.0002 38Z" fill="white"/>
    <path d="M88.3878 52.7577H85.9408V41.5017C85.9408 38.8032 83.7455 36.6078 81.0469 36.6078H77.7328L74.3414 30.5101C73.8245 29.5782 72.8408 28.9998 71.774 28.9998C71.2767 28.9998 70.7834 29.128 70.3479 29.3697L57.3321 36.6077H42.7933C40.0948 36.6077 37.8994 38.803 37.8994 41.5016V75.1061C37.8994 77.8046 40.0948 80 42.7933 80H81.0469C83.7455 80 85.9408 77.8046 85.9408 75.1061V65.237H88.3878V52.7577ZM81.0469 38.5653C82.5542 38.5653 83.7855 39.7104 83.9509 41.1757H80.2727L78.8221 38.5653H81.0469ZM71.3002 31.0806C71.7592 30.8232 72.3769 31.0032 72.6303 31.4604L78.0332 41.1747H53.1468L71.3002 31.0806ZM83.9832 75.1061C83.9832 76.725 82.6657 78.0425 81.0468 78.0425H42.7933C41.1744 78.0425 39.8569 76.725 39.8569 75.1061V41.5017C39.8569 39.8828 41.1744 38.5653 42.7933 38.5653H53.8123L49.1181 41.1758H43.4051C42.8638 41.1758 42.4263 41.6143 42.4263 42.1546C42.4263 42.695 42.8638 43.1334 43.4051 43.1334H45.5975H81.3611H83.9832V52.7587H76.8255C73.5014 52.7587 70.7962 55.464 70.7962 58.7879V59.2088C70.7962 62.5329 73.5016 65.2381 76.8255 65.2381H83.9832V75.1061ZM86.4301 63.2796H85.9408H76.8255C74.5802 63.2796 72.7537 61.4532 72.7537 59.2078V58.7868C72.7537 56.5415 74.58 54.7151 76.8255 54.7151H85.9408H86.4301V63.2796ZM79.8234 59.0777C79.8234 60.2719 78.8563 61.2388 77.6623 61.2388C76.4682 61.2388 75.5012 60.2717 75.5012 59.0777C75.5012 57.8837 76.4683 56.9166 77.6623 56.9166C78.8565 56.9165 79.8234 57.8845 79.8234 59.0777Z" fill="#2C1D50"/>
</svg>
