<svg width="24" height="48" viewBox="0 0 24 48" fill="none" xmlns="http://www.w3.org/2000/svg">
    <path d="M12.9997 8.79997L13.4997 6.99999C13.4997 6.99999 14.1997 7.20001 14.4997 6.90001C14.5997 6.80001 14.6997 6.20001 14.7997 5.40001C14.7997 5.30001 15.0997 5.50001 15.0997 5.40001C15.0997 5.20001 14.4997 4.39996 14.5997 4.09996C14.7997 2.89996 14.6997 2.5 14.2997 2.2C13.4997 1.4 10.7997 1.3 10.3997 2.7C9.99974 4 10.0997 4.69996 10.7997 6.59996L10.3997 8.49999L12.9997 8.79997Z" fill="#E28668"/>
    <path d="M19.7998 43.8L20.4998 45.9C20.4998 45.9 22.6998 46 22.6998 46.2L19.5998 47.1L18.7998 44.1L19.7998 43.8Z" fill="#9AACBA"/>
    <path d="M3.29968 47.2H1.49969L0.199707 46.2L1.89972 43.6L2.69971 44.1L1.69971 46.1L1.99969 46.9L3.29968 47.2Z" fill="#9AACBA"/>
    <path d="M7.79962 33.5C7.09962 33.4 6.89965 33.4 6.19965 33.2L1.09961 44.9L1.99963 45.5L8.09961 36.2L8.99963 34C8.59963 33.8 8.19962 33.6 7.79962 33.5Z" fill="#E28668"/>
    <path d="M16.6998 32.6C15.5998 33 15.3998 33.4 14.2998 33.7L14.4998 34.5L19.1998 45.5L20.2998 45.3L16.6998 32.6Z" fill="#E28668"/>
    <path d="M17.3997 32.7L15.1997 24.2H7.09967L5.69971 33.5C6.39971 33.7 7.09968 33.9 7.79968 34C8.29968 34.1 8.79968 34.2 9.29968 34.3L11.4997 28.6L13.7997 34.1C14.8997 33.8 16.2997 33.1 17.3997 32.7Z" fill="#4E587F"/>
    <path d="M10.3997 6.90002C10.3997 6.90002 12.0997 7.40002 12.8997 8.40002C13.6997 9.40002 15.0996 12.1 15.0996 12.5C15.0996 12.9 14.6996 16.2 14.6996 16.2L16.1996 25.3C16.1996 25.3 9.79961 26.3 6.59961 25.3L8.29962 17.8C8.29962 17.8 8.09962 15.2 7.79962 14.8C7.49962 14.5 7.29962 9.79999 8.29962 8.79999C9.19962 7.89999 9.39965 8.00001 9.69965 7.70001C9.99965 7.40001 10.3997 6.90002 10.3997 6.90002Z" fill="#7FB9F5"/>
    <path d="M10.8998 7.1C10.0998 6.6 7.39975 6.50004 7.09975 6.70004C6.79975 6.90004 7.4998 7.60003 7.3998 8.00003C7.2998 8.40003 5.69976 9.00005 6.29976 9.90005C6.79976 10.8 8.3998 12 8.3998 12L10.8998 7.1Z" fill="#7FB9F5"/>
    <path d="M11.6996 27.8C11.5996 27.8 11.5996 27.7 11.5996 27.7L12.4996 26.3H12.5996V26.4L11.6996 27.8Z" fill="#454F78"/>
    <path d="M14.8997 0.5C14.8997 0.7 14.7997 0.800024 14.6997 0.900024C14.7997 0.600024 14.4997 0.299988 14.1997 0.299988C13.8997 0.299988 13.6997 0.500012 13.4997 0.700012C13.5997 0.600012 13.7997 0.600012 13.8997 0.700012C13.9997 0.800012 13.8997 0.999976 13.7997 1.09998C13.6997 1.19998 13.4997 1.20001 13.3997 1.20001C12.9997 1.20001 12.6997 1.1 12.3997 1C12.0997 0.9 11.6997 0.799988 11.3997 0.799988C10.9997 0.799988 10.6997 0.899976 10.3997 1.09998C10.0997 1.29998 10.0997 1.79998 10.1997 2.09998C9.2997 2.49998 9.8997 4.00001 10.1997 4.70001C10.4997 5.40001 10.8997 6.29999 10.8997 6.29999L11.7997 5.40002C11.7997 5.40002 11.0997 4.60001 11.3997 4.20001C11.6997 3.80001 11.9997 4.40002 11.9997 4.40002C11.9997 4.40002 12.0997 6.10001 12.2997 6.20001C12.4997 6.30001 13.8997 7.29998 14.4997 7.09998C15.0997 6.89998 14.7997 5.09998 14.7997 5.09998L13.8997 5C13.0997 4.9 12.4997 4.20002 12.4997 3.40002C12.4997 3.40002 13.3997 3.70002 13.5997 2.90002C14.2997 2.80002 15.0997 2.50002 15.2997 1.90002C15.5997 1.60002 15.3997 0.8 14.8997 0.5Z" fill="#393762"/>
    <path d="M13.4998 1.3C13.4998 1.3 11.9998 4.70001 10.3998 5.50001C10.3998 5.50001 9.09982 3.40004 9.19982 2.40004C9.19982 1.40004 9.89981 0.800025 10.9998 0.700025C11.9998 0.600025 13.4998 1.3 13.4998 1.3Z" fill="#DA5955"/>
    <path d="M10.6996 4.50001C10.6996 4.50001 10.6996 4.40001 10.6996 4.50001C10.5996 4.40001 10.5996 4.40004 10.5996 4.40004C11.2996 3.70004 11.7996 2.80004 12.2996 1.90004C12.2996 1.90004 12.3997 1.80004 12.3997 1.90004C12.3997 1.90004 12.4997 2.00001 12.3997 2.00001C11.9997 2.80001 11.3996 3.70001 10.6996 4.50001C10.6996 4.40001 10.6996 4.50001 10.6996 4.50001Z" fill="#A14745"/>
    <path d="M7.69964 14.8C7.69964 14.8 7.59964 14.8 7.69964 14.8C7.19964 12.4 7.4996 9.20002 9.5996 7.40002H9.69964V7.5C7.59964 9.4 7.39964 12.5 7.69964 14.8C7.79964 14.8 7.79964 14.8 7.69964 14.8Z" fill="#6399D8"/>
    <path d="M15.6997 14.9H14.7997C14.7997 14.9 12.4997 9.60004 11.6997 8.90004C10.8997 8.20004 10.6997 14.4 11.9997 16.3C13.2997 18.2 13.5997 18.2 16.0997 17.2C18.5997 16.3 15.6997 14.9 15.6997 14.9Z" fill="#7FB9F5"/>
    <path d="M23.1997 12.8C23.2997 12.6 23.1997 11.8 23.1997 11.9C23.0997 12 22.9997 12.4 22.9997 12.4V12.6C22.9997 12.6 22.7997 12.5 22.7997 12.6C22.7997 12.7 22.6997 12.9 22.6997 12.9V13.4L23.1997 12.8Z" fill="#E28668"/>
    <path d="M16.0996 15L16.5996 16.9C16.5996 16.9 21.3996 15 21.6996 14.9C21.6996 14.9 22.3996 14.3 22.5996 14.2C22.6996 14.1 23.1996 12.9 23.2996 12.8C23.2996 12.7 22.3997 12.6 22.3997 12.6C22.3997 12.6 22.3996 12 22.2996 11.9C22.2996 11.8 22.0996 11.4 21.9996 11.7L21.7996 12.6L21.4996 12.9C21.3996 13.1 21.1996 14 21.1996 14L16.0996 15Z" fill="#E28668"/>
    <path d="M15.6997 14.9C15.6997 14.9 16.1997 13.5 17.1997 14.1C18.1997 14.7 18.2997 14 18.2997 14L20.8997 13.3L21.6997 15L16.1997 17.4L15.6997 14.9Z" fill="#7FB9F5"/>
    <path d="M13.4998 18C13.1998 18 12.7998 17.9 12.4998 17.6C12.0998 17.3 11.8997 17 11.5997 16.6C10.8997 15.5 10.1998 14.4 9.69977 13.2C9.29977 12.4 8.99976 11.6 8.99976 10.7C8.99976 9.90004 9.19973 9.20001 9.59973 8.80001C9.89973 8.50001 10.2997 8.40003 10.7997 8.50003C10.7997 8.50003 10.8998 8.5 10.8998 8.6C10.8998 8.6 10.8997 8.70004 10.7997 8.70004C10.3997 8.60004 9.99974 8.70003 9.79974 9.00003C9.39974 9.30003 9.19977 10 9.19977 10.8C9.19977 11.7 9.59978 12.5 9.89978 13.2C10.3998 14.4 11.0997 15.5 11.7997 16.6C11.9997 16.9 12.2998 17.3 12.6998 17.6C13.0998 17.9 13.4998 18.0001 13.8998 17.9001C13.8998 17.9001 13.9998 17.9 13.9998 18C13.9998 18 13.9998 18.1 13.8998 18.1C13.7998 18 13.6998 18 13.4998 18Z" fill="#6399D8"/>
    <path d="M14.1997 14.4C14.0997 14.4 14.0997 14.4 14.1997 14.4C14.1997 13.6 14.1997 12.8 13.6997 12.4C13.5997 12.3 13.4997 12.2 13.3997 12.2C13.2997 12.1 13.1996 12.1 13.0996 12C12.7996 11.7 12.5997 11.4 12.3997 11C12.1997 10.6 11.9996 10.2 11.5996 10C11.5996 10 11.4996 9.90004 11.5996 9.90004C11.5996 9.90004 11.6997 9.80004 11.6997 9.90004C12.0997 10.1 12.2996 10.6 12.4996 11C12.6996 11.3 12.7996 11.7 13.0996 11.9C13.1996 12 13.2997 12 13.3997 12.1C13.4997 12.2 13.5997 12.2 13.6997 12.3C14.2997 12.8 14.2997 13.6 14.1997 14.4Z" fill="#6399D8"/>
</svg>
