<svg width="128" height="113" viewBox="0 0 128 113" fill="none" xmlns="http://www.w3.org/2000/svg">
    <path d="M18.0335 70.574C19.6203 85.0083 64.2429 88.5633 75.3935 79.3056C84.5803 71.6784 59.3611 49.3388 62.7159 40.5126C66.9093 29.4798 55.1123 23.8276 40.8144 29.1208C26.5165 34.414 34.4383 35.5701 21.2149 34.5459C10.6363 33.7265 -3.03494 53.3407 3.86759 61.2857C7.21885 65.143 16.7641 59.0267 18.0335 70.574Z" fill="#6478E1"/>
    <path d="M28.1627 11.8886C9.63789 20.5357 14.7012 25.2067 19.302 41.4334C24.5848 52.6084 36.0005 59.3438 26.1174 75.8766C16.2343 92.4094 30.7181 94.3994 46.7355 109.708C62.753 125.016 77.9184 81.2344 97.3438 94.3994C116.769 107.564 131.764 67.304 127.163 53.8329C122.563 40.3617 104.16 48.1688 107.397 34.3915C112.472 21.1544 96.705 -20.1057 28.1627 11.8886Z" fill="#F75C02"/>
    <circle cx="122.5" cy="29.5" r="3.5" fill="#F75C02"/>
    <rect x="45" y="57.1033" width="42.7684" height="29.3069" rx="3" transform="rotate(-44.738 45 57.1033)" fill="white"/>
    <path d="M94.6465 45.1531L78.4971 29.0039C77.6254 28.1322 76.4628 27.6521 75.2235 27.6521C73.9842 27.6521 72.8216 28.132 71.9498 29.0037L46.3518 54.6018C45.4801 55.4736 45 56.636 45 57.8754C45 59.1147 45.4801 60.2774 46.3518 61.1489L48.3432 63.1404C48.3434 63.1404 48.3435 63.1406 48.3437 63.1408C48.3439 63.141 48.3441 63.1412 48.3443 63.1414L61.7279 76.525H59.8748C59.2881 76.525 58.8123 77.0007 58.8123 77.5875C58.8123 78.1742 59.2881 78.6499 59.8748 78.6499H65.7706C65.772 78.6499 65.7733 78.65 65.7747 78.65C65.7761 78.65 65.7773 78.6499 65.7787 78.6499L81.124 78.6501C81.7107 78.6501 82.1864 78.1744 82.1864 77.5877C82.1864 77.0009 81.7107 76.5252 81.124 76.5252L69.8218 76.525L94.6466 51.7002C96.4515 49.8951 96.4515 46.958 94.6465 45.1531ZM93.144 50.1977L67.5458 75.7959C67.0764 76.2653 66.4488 76.524 65.7785 76.525H65.7705C65.1004 76.5239 64.4731 76.2653 64.0038 75.7959L50.5976 62.3896L75.1808 37.8061C75.5957 37.3913 75.5957 36.7185 75.1808 36.3036C74.7659 35.8887 74.0933 35.8887 73.6782 36.3037L49.095 60.8872L47.8542 59.6464C47.384 59.1762 47.125 58.5472 47.125 57.8755C47.125 57.2037 47.384 56.5747 47.8543 56.1043L73.4523 30.5063C73.9227 30.0361 74.5517 29.7771 75.2235 29.7771C75.8952 29.7771 76.5243 30.0361 76.9946 30.5064L82.7424 36.2541L58.1589 60.8379C57.744 61.2526 57.744 61.9254 58.1589 62.3405C58.3664 62.5479 58.6383 62.6516 58.9101 62.6516C59.182 62.6516 59.4539 62.5478 59.6614 62.3404L84.2449 37.7567L93.144 46.6555C94.1205 47.6321 94.1204 49.2211 93.144 50.1977Z" fill="#2C1D50"/>
    <path d="M71.1751 58.3375C70.7602 57.9226 70.0877 57.9227 69.6725 58.3375L61.3118 66.698C60.897 67.1129 60.897 67.7856 61.3118 68.2007C61.5193 68.4081 61.7913 68.5118 62.0631 68.5118C62.3349 68.5118 62.6069 68.408 62.8143 68.2007L71.175 59.8401C71.59 59.425 71.59 58.7524 71.1751 58.3375Z" fill="#2C1D50"/>
    <path d="M67.7473 66.2747L64.3182 69.7038C63.9034 70.1187 63.9034 70.7914 64.3182 71.2064C64.5257 71.4138 64.7977 71.5176 65.0695 71.5176C65.3415 71.5176 65.6133 71.4138 65.8208 71.2064L69.2498 67.7773C69.6647 67.3625 69.6647 66.6897 69.2498 66.2747C68.835 65.8598 68.1625 65.8598 67.7473 66.2747Z" fill="#2C1D50"/>
    <path d="M70.8996 63.1165L70.4489 63.5672C70.0339 63.982 70.0339 64.6547 70.4488 65.0698C70.6562 65.2773 70.9282 65.381 71.2 65.381C71.4719 65.381 71.7438 65.2773 71.9512 65.0698L72.4019 64.6191C72.8169 64.2043 72.8169 63.5316 72.402 63.1166C71.9874 62.7018 71.3145 62.7017 70.8996 63.1165Z" fill="#2C1D50"/>
    <path d="M85.5509 43.9666C85.3516 43.7674 85.0814 43.6554 84.7996 43.6554C84.5178 43.6554 84.2477 43.7674 84.0483 43.9666L79.5405 48.4743C79.3413 48.6736 79.2293 48.9438 79.2293 49.2256C79.2293 49.5074 79.3413 49.7776 79.5405 49.9768L82.5457 52.9818C82.7532 53.1893 83.0251 53.293 83.297 53.293C83.569 53.293 83.8408 53.1892 84.0482 52.9818L88.5559 48.4742C88.9708 48.0594 88.9708 47.3866 88.5559 46.9717L85.5509 43.9666ZM83.2969 50.7281L81.7943 49.2256L84.7995 46.2205L86.302 47.7231L83.2969 50.7281Z" fill="#2C1D50"/>
    <path d="M76.9095 35.6363C77.1816 35.6363 77.4535 35.5325 77.6609 35.3249L78.1116 34.874C78.5264 34.459 78.5263 33.7862 78.1113 33.3714C77.6964 32.9567 77.0236 32.9568 76.6088 33.3717L76.1581 33.8227C75.7433 34.2376 75.7434 34.9104 76.1584 35.3252C76.3659 35.5327 76.6376 35.6363 76.9095 35.6363Z" fill="#2C1D50"/>
    <path d="M55.6773 63.3159L55.2266 63.7666C54.8117 64.1814 54.8117 64.8541 55.2266 65.2692C55.4341 65.4766 55.706 65.5803 55.9778 65.5803C56.2497 65.5803 56.5216 65.4766 56.7291 65.2692L57.1798 64.8185C57.5947 64.4035 57.5947 63.7307 57.1798 63.3159C56.7648 62.9009 56.0923 62.9009 55.6773 63.3159Z" fill="#2C1D50"/>
</svg>
