<svg width="16" height="45" viewBox="0 0 16 45" fill="none" xmlns="http://www.w3.org/2000/svg">
    <path d="M12.3999 22.3L7.99988 23L3.59985 22.3V43.7H4.59985L7.99988 24.6L8.29987 43.7H9.29987C9.29987 43.7 11.0999 35.7 11.0999 34.9C11.1999 34.2 10.7999 31.9 10.7999 31.9L12.3999 22.3Z" fill="#393762"/>
    <path d="M4.5 6.70002C4.5 6.70002 4.80001 3.8 5.20001 2.3C5.60001 0.799998 7.19998 0.300035 8.09998 0.400035C9.09998 0.500035 10.9 0.899986 10.9 3.09999C10.9 5.29999 11.2 6.8 11.2 6.8L4.5 6.70002Z" fill="#393762"/>
    <path d="M4.8999 12.2L5.49988 15.8C4.09988 17.9 3.2999 21.1 2.8999 23.6H13.3999C12.4999 18.1 10.3999 15.9 10.3999 15.9L11.1999 12.2C11.9999 11.5 11.9999 10.4 11.9999 9.90002C11.9999 9.40002 11.9999 8 11.9999 8C11.9999 8 8.6999 6.40002 7.8999 6.40002C7.0999 6.40002 3.99988 7.90002 3.99988 7.90002V9.90002C3.79988 11.2 4.8999 12.2 4.8999 12.2Z" fill="#EADED1"/>
    <path d="M5.39996 21.9L5.69995 7C5.69995 7 3.99994 7.40002 3.49994 7.90002C2.99994 8.40002 1.79995 17 1.69995 19.6C1.69995 19.9 1.99994 20.6 1.99994 20.6C1.99994 21 1.99996 21.4 1.89996 21.8H5.39996V21.9Z" fill="#DC6879"/>
    <path d="M11.1999 12.1C11.0999 12.1 11.0999 12.1 11.1999 12.1C11.0999 12.1 11.0999 12 11.0999 12C11.5999 11.2 11.6999 10.1 11.2999 9.20002C11.2999 9.20002 11.2999 9.19999 11.2999 9.09999C11.3999 8.99999 11.3999 8.90002 11.4999 8.70002C11.5999 8.60002 11.5999 8.4 11.6999 8.3C11.6999 8.3 11.7999 8.2 11.7999 8.3C11.7999 8.3 11.8999 8.40004 11.7999 8.40004C11.6999 8.50004 11.6999 8.6 11.5999 8.8C11.4999 8.9 11.4999 8.99999 11.3999 9.09999C11.7999 10.1 11.7999 11.2 11.1999 12.1Z" fill="#393762"/>
    <path d="M7.19995 5.20001V7C7.19995 7 8.09994 8.6 8.99994 7L8.89996 5.09998H7.19995V5.20001Z" fill="#E28668"/>
    <path d="M7.59989 0.800013C5.99989 1.00001 5.79989 2.80001 6.09989 4.30001C6.39989 5.40001 6.99989 6.50005 8.09989 6.40005C9.09989 6.40005 9.69994 5 9.89994 4.1C10.1999 2.8 10.0999 0.500013 7.59989 0.800013Z" fill="#E28668"/>
    <path d="M6.2999 3.90001C6.2999 3.90001 6.19993 3.29998 5.69993 3.49998C5.19993 3.69998 5.79994 5.10001 6.39994 4.90001C6.99994 4.80001 6.2999 3.90001 6.2999 3.90001Z" fill="#E28668"/>
    <path d="M9.59997 3.90001C9.59997 3.90001 9.59997 3.29998 10.1 3.49998C10.6 3.69998 10.1 5.09998 9.49999 4.99998C8.99999 4.79998 9.59997 3.90001 9.59997 3.90001Z" fill="#E28668"/>
    <path d="M9.69991 1.30001C9.59991 1.20001 9.39988 1.20004 9.29988 1.20004C9.29988 1.10004 9.19987 1.00002 9.09987 1.00002C8.49987 0.700024 7.19991 0.700024 6.69991 1.00002C6.09991 1.30002 5.49988 2.30005 5.29988 2.90005C5.09988 3.60005 5.29989 4.20005 5.49989 4.90005C5.49989 5.10005 5.59988 5.30005 5.79988 5.40005C5.89988 5.50005 6.09988 5.40005 6.29988 5.40005C7.19988 5.20005 7.99987 4.70002 8.59987 4.00002C8.69987 3.90002 8.79992 3.80004 8.89992 3.70004C9.09992 4.30004 9.49989 4.90001 9.99989 5.30001C10.0999 5.30001 10.0999 5.40005 10.1999 5.40005C10.2999 5.40005 10.3999 5.30004 10.3999 5.20004C10.5999 4.80004 10.7999 4.40002 10.7999 4.00002C10.6999 3.50002 10.0999 1.40001 9.69991 1.30001Z" fill="#393762"/>
    <path d="M8.09985 6.50001C7.89985 6.50001 7.5999 6.4 7.3999 6.3V6.20002C7.3999 6.20002 7.49988 6.10002 7.49988 6.20002C7.89988 6.40002 8.39987 6.40002 8.79987 6.20002H8.8999V6.3C8.5999 6.5 8.29985 6.50001 8.09985 6.50001Z" fill="#B8745D"/>
    <path d="M13.4999 21.9C13.4999 21.6 13.4999 21.2 13.3999 20.9C13.3999 20.9 13.5999 20 13.5999 19.6C13.4999 17 12.3999 8.40002 11.8999 7.90002C11.3999 7.40002 9.8999 7 9.8999 7L10.0999 21.9H13.4999Z" fill="#DC6879"/>
    <path d="M11.9999 7.90002C12.4999 8.30002 12.8999 9.2 13.0999 10C13.2999 10.8 15.4999 13 15.1999 13.8C14.8999 14.6 14.7999 14.7 15.1999 15.6C15.5999 16.5 13.5999 16.8 12.8999 16.6C12.1999 16.4 10.4999 15.4 10.4999 15.4L10.3999 13.8L11.1999 13.9L11.9999 7.90002Z" fill="#DC6879"/>
    <path d="M3.49993 7.90002C2.99993 8.30002 2.69996 9.2 2.39996 10C2.19996 10.8 -7.85291e-05 13 0.299921 13.8C0.599921 14.6 0.699921 14.7 0.299921 15.6C-7.85291e-05 16.6 1.89991 16.8 2.59991 16.6C3.29991 16.4 4.99993 15.4 4.99993 15.4L5.09991 13.8L4.29992 13.9L3.49993 7.90002Z" fill="#DC6879"/>
    <path d="M4.59998 43.6L4.29999 44.9H2.5L3.40002 44.3L3.59998 43.6H4.59998Z" fill="#DC6879"/>
    <path d="M8.2998 43.6V44.9H9.99982L9.09979 44.3L9.2998 43.6H8.2998Z" fill="#DC6879"/>
    <path d="M3.2998 14.2L3.59979 9.90002H11.1998L11.3998 14.9H3.2998V14.2Z" fill="#393762"/>
    <path d="M7.39996 13C7.19996 13 6.99993 12.9 6.79993 12.7C6.69993 12.6 6.69995 12.4 6.69995 12.2C6.69995 12 6.89991 11.8 7.09991 11.7C7.19991 11.7 7.29993 11.6 7.29993 11.6C7.59993 11.6 7.79996 11.7 7.89996 12C8.09996 12.3 7.89991 12.7 7.59991 12.9C7.69991 13 7.59996 13 7.39996 13ZM7.39996 11.8C7.29996 11.8 7.29995 11.8 7.19995 11.8C6.99995 11.9 6.89996 12 6.89996 12.2C6.89996 12.3 6.89994 12.5 6.99994 12.6C7.09994 12.7 7.29996 12.8 7.39996 12.8C7.49996 12.8 7.59991 12.8 7.59991 12.7C7.79991 12.6 7.89993 12.3 7.79993 12C7.79993 11.9 7.59996 11.8 7.39996 11.8Z" fill="#494788"/>
    <path d="M12.6999 13.9C12.6999 13.9 12.2999 13.1 12.0999 13.1L11.7999 13.8L10.4999 13.6C10.4999 13.7 10.3999 14 10.3999 14H10.8999C10.8999 14 10.7999 14.2 10.7999 14.3C10.7999 14.4 10.9999 14.5 10.9999 14.5C10.9999 14.5 10.9999 14.7 10.9999 14.9C10.9999 15.1 10.9999 15.3 11.0999 15.5C11.1999 15.7 12.4999 15.5 12.5999 15.4C13.3999 15.2 13.3999 14.3 12.6999 13.9Z" fill="#E28668"/>
    <path d="M2.30002 14.3C2.30002 14.3 2.70006 13.5 2.90006 13.5L3.20005 14.2L4.50003 14C4.50003 14.1 4.60001 14.4 4.60001 14.4H4.10001C4.10001 14.4 4.20005 14.6 4.20005 14.7C4.20005 14.8 4.00003 14.9 4.00003 14.9C4.00003 14.9 4.00003 15.1 4.00003 15.3C3.90003 15.5 4.00006 15.7 3.90006 15.9C3.80006 16.1 2.50006 15.9 2.40006 15.8C1.70006 15.6 1.70002 14.6 2.30002 14.3Z" fill="#E28668"/>
    <path d="M2.09998 14.2C1.89998 13.9 1.7 13.7 1.5 13.5V13.4H1.59998C1.79998 13.6 1.99998 13.9 2.09998 14.1C2.19998 14.2 2.19998 14.2 2.09998 14.2Z" fill="#C35469"/>
    <path d="M12.6999 13.6C12.5999 13.6 12.5999 13.5 12.5999 13.5C12.6999 13.2 12.8999 13 13.0999 12.9H13.1999V13C12.9999 13.2 12.8999 13.4 12.6999 13.6C12.7999 13.6 12.6999 13.6 12.6999 13.6Z" fill="#C35469"/>
    <path d="M4.69995 21C3.89995 21 3.09993 20.9 2.29993 20.9C2.29993 20.9 2.19995 20.9 2.19995 20.8C2.19995 20.8 2.19993 20.7 2.29993 20.7C3.09993 20.8 3.89995 20.8 4.69995 20.8C4.79995 20.9 4.79995 20.9 4.69995 21C4.79995 21 4.79995 21 4.69995 21Z" fill="#C35469"/>
    <path d="M10.5999 21C10.4999 21 10.4999 20.9 10.5999 21C10.4999 20.9 10.5999 20.8 10.5999 20.8C11.3999 20.7 12.1999 20.7 12.9999 20.8C12.9999 20.8 13.0999 20.8 13.0999 20.9C13.0999 20.9 13.0999 21 12.9999 21C12.0999 20.9 11.3999 20.9 10.5999 21Z" fill="#C35469"/>
    <path d="M2.2 16.7C2.1 16.7 2.1 16.7 2.2 16.7C2.1 16.6 2.2 16.5 2.2 16.5C2.4 16.5 2.69998 16.4 2.79998 16.1H2.90001V16.2C2.80001 16.6 2.5 16.7 2.2 16.7Z" fill="#C35469"/>
    <path d="M13.1998 16.6C12.7998 16.4 12.4998 16.1 12.2998 15.8V15.7H12.3998C12.5998 16 12.8998 16.2 13.1998 16.4C13.2998 16.5 13.2998 16.5 13.1998 16.6C13.2998 16.6 13.1998 16.6 13.1998 16.6Z" fill="#C35469"/>
    <path d="M13.4999 15.4C13.4999 15.4 13.3999 15.4 13.4999 15.4C13.3999 15.4 13.4 15.3 13.4 15.3C13.5 14.9 13.5 14.4 13.2 14.1V14H13.2999C13.5999 14.4 13.6999 14.9 13.4999 15.4Z" fill="#C35469"/>
    <path d="M1.7001 15.6C1.4001 15.2 1.4001 14.6 1.7001 14.3H1.80007V14.4C1.60007 14.7 1.5001 15.2 1.7001 15.5C1.8001 15.6 1.8001 15.6 1.7001 15.6Z" fill="#C35469"/>
    <path d="M8.79987 20.9C8.69987 20.9 8.69987 20.9 8.79987 20.9C7.59987 19.5 6.79985 17.8 6.59985 16C6.59985 16 6.59989 15.9 6.69989 15.9C6.69989 15.9 6.79987 15.9 6.79987 16C7.09987 17.8 7.7999 19.4 8.8999 20.8C8.7999 20.8 8.79987 20.9 8.79987 20.9Z" fill="#CDAF97"/>
</svg>
