<svg width="104" height="94" viewBox="0 0 104 94" fill="none" xmlns="http://www.w3.org/2000/svg">
    <circle cx="15.5" cy="82.5" r="3.5" fill="#2C1D50"/>
    <path d="M56.9892 36.5469C48.4892 37.0469 54.661 27.2891 46.448 24.0469C38.235 20.8047 27.7762 19.8047 33.7762 10.8047C39.7762 1.80471 46.7762 6.80466 53.7762 2.80466C60.7762 -1.19534 70.948 -1.95319 75.948 7.54681C80.948 17.0468 71.448 16.0469 68.448 24.0469C65.448 32.0469 65.4892 36.0469 56.9892 36.5469Z" fill="#6478E1"/>
    <path d="M70.1759 11.1924C87.3846 -6.40102 101.033 5.14464 104 38.1322C104 51.877 99.8462 74.9684 74.9231 89.2631C50.0001 103.558 38.1319 81.5659 12.0221 74.9684C-14.0878 68.3709 8.46164 14.4912 22.11 5.69447C35.7583 -3.10222 52.9671 28.7857 70.1759 11.1924Z" fill="#2C1D50"/>
    <circle cx="53" cy="51" r="26" fill="white"/>
    <path d="M53 24C38.0885 24 26 36.0885 26 51C26 65.9115 38.0885 78 53 78C67.9115 78 80 65.9115 80 51C79.9833 36.0955 67.9045 24.0167 53 24ZM53 76.2C39.0825 76.2 27.8 64.9175 27.8 51C27.8 37.0825 39.0825 25.8 53 25.8C66.9175 25.8 78.2 37.0825 78.2 51C78.1842 64.9109 66.9109 76.1842 53 76.2Z" fill="#2C1D50"/>
    <path d="M52.9999 29.4C41.0705 29.4 31.3999 39.0706 31.3999 51C31.3999 62.9294 41.0705 72.6 52.9999 72.6C64.9293 72.6 74.5999 62.9294 74.5999 51C74.5858 39.0763 64.9236 29.414 52.9999 29.4ZM53.8999 70.7776V68.1C53.8999 67.6029 53.4969 67.2 52.9999 67.2C52.5029 67.2 52.0999 67.6029 52.0999 68.1V70.7776C41.8782 70.3003 33.6996 62.1216 33.2223 51.9H35.8999C36.3969 51.9 36.7999 51.497 36.7999 51C36.7999 50.5029 36.3969 50.1 35.8999 50.1H33.2223C33.6996 39.8783 41.8782 31.6996 52.0999 31.2224V33.9C52.0999 34.397 52.5029 34.8 52.9999 34.8C53.4969 34.8 53.8999 34.397 53.8999 33.9V31.2224C64.1216 31.6996 72.3002 39.8783 72.7775 50.1H70.0999C69.6029 50.1 69.1999 50.5029 69.1999 51C69.1999 51.497 69.6029 51.9 70.0999 51.9H72.7775C72.3002 62.1216 64.1216 70.3003 53.8999 70.7776Z" fill="#2C1D50"/>
    <path d="M65.7001 50.0999H55.5344C55.1543 49.025 54.14 48.3048 53.0001 48.2999C52.5984 48.3013 52.2025 48.3935 51.8417 48.5698L51.8364 48.5619L45.9364 42.6619C45.5831 42.3208 45.0219 42.3257 44.6747 42.6728C44.3276 43.02 44.3227 43.5812 44.6637 43.9345L50.5637 49.8345L50.5717 49.8398C50.395 50.201 50.3018 50.5978 50.3001 50.9999C50.2974 52.3135 51.2427 53.4371 52.5373 53.6599C53.832 53.8823 55.098 53.1388 55.5344 51.8999H65.7001C66.1971 51.8999 66.6001 51.497 66.6001 50.9999C66.6001 50.5029 66.1971 50.0999 65.7001 50.0999ZM53.0001 51.8999C52.503 51.8999 52.1001 51.497 52.1001 50.9999C52.1001 50.5029 52.503 50.0999 53.0001 50.0999C53.4971 50.0999 53.9001 50.5029 53.9001 50.9999C53.9001 51.497 53.4971 51.8999 53.0001 51.8999Z" fill="#2C1D50"/>
</svg>
