<svg width="19" height="18" viewBox="0 0 19 18" fill="none" xmlns="http://www.w3.org/2000/svg">
    <path d="M17.982 6.6002C17.923 6.41955 17.7681 6.29051 17.5801 6.26101L11.9762 5.46468L9.45451 0.395402C9.36971 0.225812 9.19644 0.118896 9.00841 0.118896C8.82039 0.118896 8.64711 0.225812 8.56232 0.399089L6.07376 5.48311L0.469909 6.31632C0.281885 6.34581 0.127042 6.47485 0.0680542 6.6555C0.00906631 6.83615 0.0606807 7.03523 0.19709 7.16427L4.26357 11.1054L3.32345 16.6871C3.29027 16.8752 3.36769 17.0632 3.52253 17.1738C3.60733 17.2365 3.71056 17.2696 3.81379 17.2696C3.8949 17.2696 3.97232 17.2512 4.04605 17.2106L9.04897 14.5599L14.0666 17.1812C14.1404 17.218 14.2178 17.2365 14.2952 17.2365C14.568 17.2365 14.7929 17.0116 14.7929 16.7387C14.7929 16.6982 14.7892 16.6613 14.7782 16.6245L13.8086 11.0759L17.8492 7.11265C17.993 6.97993 18.0409 6.78085 17.982 6.6002ZM12.9311 10.5487C12.8131 10.663 12.7615 10.8289 12.791 10.9911L13.6353 15.8318L9.27754 13.5571C9.13376 13.4797 8.96048 13.4833 8.81301 13.5571L4.47003 15.8576L5.2848 11.0095C5.31061 10.8473 5.25899 10.6851 5.14102 10.5708L1.61649 7.14952L6.4793 6.42692C6.64152 6.40111 6.78162 6.30157 6.85167 6.1541L9.0121 1.74106L11.202 6.14304C11.2758 6.29051 11.4159 6.39005 11.5781 6.41586L16.4446 7.10897L12.9311 10.5487Z" fill="#F5BF4C"/>
</svg>