<svg width="120" height="131" viewBox="0 0 120 131" fill="none" xmlns="http://www.w3.org/2000/svg">
    <path d="M93.6045 74.1809C109.33 64.9322 91.9461 15.3484 76.0123 8.26615C62.8847 2.43127 46.9987 21.5218 35.3043 22.5516C20.6862 23.8387 22.3865 58.9815 35.3043 71.5038C48.222 84.0261 45.7356 74.949 50.9205 89.6272C55.0685 101.37 84.044 105.73 89.8023 94.1907C92.598 88.5885 81.024 81.5798 93.6045 74.1809Z" fill="#6478E1"/>
    <path d="M36.4079 11.2799C8.38678 -3.59905 -4.7166 57.9549 1.53271 91.3816C5.36293 102.796 15.4425 128.477 27.1347 121.955C38.827 115.432 78.3387 95.2542 82.1689 115.229C85.9991 135.203 121.882 88.1205 116.439 59.9931C110.996 31.8658 64.4289 26.1588 36.4079 11.2799Z" fill="#F75C02"/>
    <circle cx="79.5" cy="127.5" r="3.5" fill="#F75C02"/>
    <path d="M32.5 86L36.5 46.5H71.5L70.5 61.5C71.6667 61.3333 74.7 61.1 77.5 61.5C81 62 83.5 64.5 85.5 66.5C87.1 68.1 87.1667 73.5 87 76L85.5 86H80.5C80.5 88 79.3 92 74.5 92C69.7 92 68.1667 88 68 86H50.5C49.8333 88 47.6 92 44 92C40.4 92 38.5 88 38 86H32.5Z" fill="white"/>
    <path d="M75.5158 60.449H71.3541L72.608 46.0521C72.6103 46.026 72.6107 46.0003 72.6109 45.9747C72.6109 45.9725 72.6111 45.9704 72.6111 45.9682C72.6111 45.5763 72.3747 45.2299 72.0273 45.0798C72.0243 45.0785 72.0215 45.077 72.0185 45.0757C71.9969 45.0666 71.9746 45.0589 71.9521 45.0514C71.9437 45.0487 71.9357 45.0453 71.9273 45.0427C71.909 45.0372 71.8902 45.0328 71.8714 45.0283C71.8583 45.0252 71.8456 45.0214 71.8323 45.0189C71.8159 45.0156 71.7989 45.0136 71.7821 45.0111C71.7663 45.0088 71.7508 45.0061 71.735 45.0046C71.7323 45.0044 71.7298 45.0039 71.7271 45.0036C71.7101 45.0021 71.6933 45.0023 71.6764 45.0017C71.665 45.0013 71.6539 45 71.6425 45H71.6304H71.6274H48.6271C48.0926 45 47.6588 45.4338 47.6588 45.9683C47.6588 46.5015 48.0926 46.9366 48.6271 46.9366H70.5871L68.66 69.0629L68.6594 69.0679L68.1732 74.6508H34.526L35.0888 68.8411H41.4953C42.0303 68.8411 42.4637 68.4075 42.4637 67.8727C42.4637 67.338 42.0303 66.9044 41.4953 66.9044H35.2765L36.4648 54.6396H46.6613C47.1962 54.6396 47.6296 54.2061 47.6296 53.6713C47.6296 53.1365 47.1962 52.703 46.6613 52.703H36.6526L37.2113 46.9366H47.9524C48.4856 46.9366 48.9207 46.5015 48.9207 45.9683C48.9207 45.4338 48.4856 45 47.9524 45H36.3325L36.3311 45.0001C35.8762 45 35.4817 45.3202 35.3863 45.7641C35.3856 45.7673 35.3844 45.7704 35.3838 45.7736C35.3789 45.7978 35.3757 45.8224 35.3724 45.8472C35.3715 45.8551 35.3699 45.8626 35.3691 45.8705L35.3684 45.875L34.7069 52.703H22.9683C22.4334 52.703 22 53.1365 22 53.6713C22 54.2061 22.4334 54.6396 22.9683 54.6396H34.5191L33.3308 66.9044H29.876C29.3411 66.9044 28.9076 67.338 28.9076 67.8727C28.9076 68.4075 29.3411 68.8411 29.876 68.8411H33.1432L32.4961 75.5188L32.4959 75.5217L31.4954 85.8478L31.495 85.8513L31.4946 85.855C31.4933 85.8685 31.4935 85.8816 31.4927 85.8951C31.4918 85.9129 31.49 85.9303 31.49 85.9484L31.4901 85.9508C31.4901 85.9758 31.4919 86.0003 31.4937 86.0248C31.4945 86.0327 31.4942 86.0407 31.4951 86.0485C31.4977 86.0735 31.502 86.0982 31.5065 86.1227C31.5078 86.1299 31.5084 86.1373 31.5099 86.1444C31.5136 86.163 31.5189 86.1809 31.5238 86.1991C31.5272 86.2119 31.5299 86.2249 31.5337 86.2375C31.5349 86.241 31.5365 86.2443 31.5375 86.2479C31.5843 86.392 31.6639 86.5214 31.7677 86.627C31.7696 86.6289 31.7712 86.6311 31.7731 86.6329C31.7834 86.6433 31.7947 86.6526 31.8055 86.6624C31.8723 86.7236 31.9477 86.7755 32.0302 86.8161C32.0473 86.8247 32.0643 86.8336 32.0818 86.8409C32.0871 86.8433 32.0928 86.8448 32.0982 86.8469C32.1225 86.8565 32.1469 86.8658 32.1721 86.8737C32.1744 86.8744 32.1766 86.8748 32.1789 86.8755C32.2076 86.8841 32.2365 86.8915 32.2661 86.8976C32.2699 86.8984 32.2739 86.8986 32.2777 86.8994C32.3058 86.9047 32.3341 86.9092 32.3629 86.9121L32.3647 86.9123C32.3965 86.9154 32.428 86.917 32.4592 86.917L32.4606 86.9168H36.7713C37.2474 90.5259 40.3415 93.3211 44.0786 93.3211C47.8154 93.3211 50.9095 90.5259 51.3856 86.9168H66.9174C67.3935 90.5259 70.4875 93.3211 74.2245 93.3211C77.9613 93.3211 81.0557 90.5259 81.5318 86.9168H85.8436L85.8457 86.917C85.8779 86.917 85.9097 86.915 85.9412 86.9119C85.9469 86.9114 85.9523 86.9103 85.958 86.9096C85.9832 86.9067 86.0082 86.9032 86.0327 86.8983C86.0433 86.8962 86.0535 86.8933 86.064 86.8909C86.083 86.8865 86.1021 86.8819 86.1207 86.8763C86.1333 86.8726 86.1456 86.8682 86.158 86.8639C86.1739 86.8585 86.1897 86.8528 86.2054 86.8465C86.2188 86.8412 86.2316 86.8354 86.2446 86.8296C86.2588 86.823 86.273 86.8163 86.2868 86.8092C86.3 86.8025 86.3126 86.7955 86.3253 86.7883C86.3386 86.7805 86.3518 86.7725 86.3648 86.7642C86.3769 86.7565 86.3891 86.7486 86.4007 86.7404C86.4139 86.7312 86.4264 86.7215 86.4392 86.7117C86.4498 86.7033 86.4605 86.695 86.4708 86.6863C86.4841 86.675 86.4966 86.6633 86.5093 86.6513C86.5181 86.6429 86.5272 86.6346 86.5358 86.6258C86.5492 86.6121 86.562 86.5977 86.5747 86.5831C86.5816 86.5752 86.5887 86.5676 86.5953 86.5596C86.6095 86.542 86.6224 86.524 86.6353 86.5058C86.6397 86.4994 86.6446 86.4935 86.6488 86.487C86.6646 86.4634 86.6795 86.4391 86.6931 86.4141L86.6958 86.4094C86.7104 86.3826 86.7239 86.3551 86.7359 86.3267C86.7392 86.3186 86.7418 86.3102 86.745 86.302C86.7529 86.282 86.7607 86.262 86.7672 86.2412C86.7715 86.2278 86.7746 86.214 86.7784 86.2004C86.7826 86.1843 86.7871 86.1683 86.7907 86.1519C86.794 86.1373 86.796 86.1223 86.7985 86.1075C86.8007 86.0944 86.8035 86.0816 86.8052 86.0683C86.8463 85.7394 87.6045 79.6558 87.9432 75.7221C87.9436 75.7184 87.9437 75.7145 87.9441 75.7107C88.0416 74.5768 88.104 73.6219 88.104 73.0373C88.104 66.0962 82.457 60.449 75.5158 60.449ZM71.1853 62.386H75.1468L74.6409 68.1954H70.6794L71.1853 62.386ZM44.0788 91.3843C41.0813 91.3843 38.6427 88.9457 38.6427 85.9483C38.6427 82.9508 41.0814 80.5122 44.0788 80.5122C47.0763 80.5122 49.5149 82.9508 49.5149 85.9483C49.5149 88.9457 47.0763 91.3843 44.0788 91.3843ZM74.2245 91.3843C71.2271 91.3843 68.7886 88.9457 68.7886 85.9483C68.7886 82.9508 71.2272 80.5122 74.2245 80.5122C77.222 80.5122 79.6606 82.9508 79.6606 85.9483C79.6606 88.9457 77.222 91.3843 74.2245 91.3843ZM84.988 84.9796H81.5321C81.0562 81.3703 77.9619 78.5749 74.2247 78.5749C70.4878 78.5749 67.3935 81.3704 66.9176 84.9796H51.3859C50.91 81.3703 47.8159 78.5749 44.0788 78.5749C40.3417 78.5749 37.2474 81.3704 36.7715 84.9796H33.5251L34.3384 76.5869H69.0606L69.062 76.5874C69.0944 76.5874 69.1266 76.5856 69.1583 76.5824C69.1643 76.5819 69.1701 76.5806 69.176 76.5798C69.2013 76.5768 69.2265 76.5732 69.2513 76.5683C69.262 76.5661 69.2725 76.5631 69.283 76.5605C69.3024 76.5559 69.3218 76.5514 69.3406 76.5457C69.3535 76.5418 69.3658 76.5372 69.3783 76.5328C69.3946 76.5271 69.4109 76.5216 69.4266 76.5151C69.4402 76.5095 69.4532 76.5034 69.4664 76.4972C69.4807 76.4906 69.495 76.484 69.5089 76.4768C69.522 76.4698 69.5349 76.4623 69.548 76.4548C69.5613 76.4471 69.5744 76.4392 69.5874 76.4309C69.5999 76.4228 69.6118 76.4143 69.6238 76.4057C69.6365 76.3967 69.6489 76.3874 69.6613 76.3777C69.6724 76.3688 69.6834 76.3597 69.6943 76.3502C69.7065 76.3396 69.7185 76.3288 69.7302 76.3176C69.74 76.3081 69.7498 76.2985 69.7593 76.2885C69.7709 76.2764 69.7822 76.2639 69.7933 76.2511C69.8019 76.241 69.8105 76.2309 69.8187 76.2206C69.8294 76.207 69.8396 76.1931 69.8497 76.179C69.8573 76.1684 69.8647 76.1579 69.8719 76.147C69.8813 76.1324 69.8904 76.1174 69.899 76.1022C69.9056 76.0908 69.9123 76.0795 69.9183 76.0679C69.9264 76.0526 69.9334 76.0371 69.9407 76.0215C69.9464 76.009 69.9522 75.9967 69.9574 75.9838C69.9637 75.9686 69.969 75.953 69.9746 75.9373C69.9793 75.9235 69.9844 75.9097 69.9886 75.8955C69.9929 75.8805 69.9964 75.8652 70.0003 75.8499C70.004 75.8346 70.0081 75.8193 70.0111 75.8037C70.0141 75.7885 70.0159 75.773 70.0182 75.7575C70.0205 75.7415 70.0232 75.7257 70.0248 75.7095C70.025 75.7071 70.0256 75.7049 70.0257 75.7026L70.511 70.1315H75.5156C78.4824 70.1315 79.8205 71.6687 81.2369 73.2963C82.4058 74.6391 83.7107 76.1375 85.9288 76.503C85.6471 79.4815 85.1917 83.3053 84.988 84.9796ZM86.0943 74.5624C84.6554 74.2691 83.7701 73.2575 82.6976 72.0253C81.3562 70.4844 79.7187 68.6039 76.5797 68.2535L77.0806 62.5019C82.2146 63.2612 86.1674 67.6959 86.1674 73.0375C86.1674 73.4005 86.1403 73.9277 86.0943 74.5624Z" fill="#2C1D50"/>
    <path d="M44.079 82.3972C42.1213 82.3972 40.5285 83.9899 40.5285 85.9477C40.5285 87.9056 42.1213 89.4983 44.079 89.4983C46.0367 89.4983 47.6296 87.9056 47.6296 85.9477C47.6296 83.99 46.0367 82.3972 44.079 82.3972ZM44.079 87.5616C43.1891 87.5616 42.4652 86.8377 42.4652 85.9477C42.4652 85.0578 43.1891 84.3339 44.079 84.3339C44.969 84.3339 45.6929 85.0578 45.6929 85.9477C45.6929 86.8377 44.9689 87.5616 44.079 87.5616Z" fill="#2C1D50"/>
    <path d="M74.2171 82.3972C72.2594 82.3972 70.6666 83.9899 70.6666 85.9477C70.6666 87.9056 72.2594 89.4983 74.2171 89.4983C76.1748 89.4983 77.7676 87.9056 77.7676 85.9477C77.7676 83.99 76.1748 82.3972 74.2171 82.3972ZM74.2171 87.5616C73.3271 87.5616 72.6032 86.8377 72.6032 85.9477C72.6032 85.0578 73.3271 84.3339 74.2171 84.3339C75.107 84.3339 75.831 85.0578 75.831 85.9477C75.831 86.8377 75.107 87.5616 74.2171 87.5616Z" fill="#2C1D50"/>
    <path d="M31.1632 60.4495H26.4293C25.8944 60.4495 25.4609 60.883 25.4609 61.4178C25.4609 61.9526 25.8944 62.3861 26.4293 62.3861H31.1632C31.6981 62.3861 32.1315 61.9526 32.1315 61.4178C32.1315 60.883 31.6981 60.4495 31.1632 60.4495Z" fill="#2C1D50"/>
</svg>
