<svg width="105" height="103" viewBox="0 0 105 103" fill="none" xmlns="http://www.w3.org/2000/svg">
    <path d="M67.3792 4.01241C53.4412 4.50713 41.4038 19.3488 30 20.3383C45.6275 33.0361 78.4029 54.3752 84.4849 38.1483C92.0875 17.8646 81.3172 3.51769 67.3792 4.01241Z" fill="#6478E1"/>
    <path d="M15.7144 2.01225C5.21436 5.51225 -1.28565 27.5123 0.214355 45.0123C6.71435 110.012 47.7144 96.5123 48.7144 98.0123C49.7144 99.5123 55.2144 103.012 65.2144 102.512C75.2144 102.012 106.714 75.0123 102.714 48.0123C98.7144 21.0123 73.5 24 56.5 13C39.5 2 26.2144 -1.48775 15.7144 2.01225Z" fill="#2C1D50"/>
    <path d="M24 68.5V38L48.5 28L74.5 38V68.5L48.5 77.5L24 68.5Z" fill="white"/>
    <path d="M71.6309 65.0062C71.4252 64.4488 70.8067 64.1638 70.2493 64.3694L59.062 68.4974C58.5046 68.703 58.2195 69.3216 58.4252 69.879C58.5856 70.3135 58.9968 70.5826 59.4345 70.5826C59.5582 70.5826 59.684 70.5611 59.8068 70.5158L70.9941 66.3879C71.5515 66.1822 71.8366 65.5636 71.6309 65.0062Z" fill="#2C1D50"/>
    <path d="M57.3676 70.2692C57.162 69.7117 56.5434 69.4266 55.986 69.6322L55.5122 69.807C54.9549 70.0127 54.6697 70.6312 54.8754 71.1885C55.0357 71.6231 55.447 71.8922 55.8847 71.8922C56.0083 71.8922 56.1342 71.8707 56.257 71.8255L56.7308 71.6507C57.2881 71.445 57.5733 70.8266 57.3676 70.2692Z" fill="#2C1D50"/>
    <path d="M71.6308 60.6228C71.425 60.0654 70.8065 59.7805 70.2491 59.986L61.4082 63.2481C60.8508 63.4538 60.5657 64.0724 60.7714 64.6298C60.9318 65.0643 61.343 65.3333 61.7807 65.3333C61.9043 65.3333 62.0302 65.3118 62.153 65.2666L70.994 62.0044C71.5514 61.7988 71.8364 61.1802 71.6308 60.6228Z" fill="#2C1D50"/>
    <path d="M71.6308 56.2851C71.425 55.7277 70.8065 55.4428 70.2491 55.6483L61.4082 58.9104C60.8508 59.1161 60.5657 59.7347 60.7714 60.2921C60.9318 60.7266 61.343 60.9956 61.7807 60.9956C61.9043 60.9956 62.0302 60.9741 62.153 60.9289L70.994 57.6667C71.5514 57.4611 71.8364 56.8425 71.6308 56.2851Z" fill="#2C1D50"/>
    <path d="M75.2967 36.6026L49.3724 27.037C49.132 26.9484 48.868 26.9484 48.6277 27.037L22.7034 36.6026L22.7032 36.6035C22.6183 36.6349 22.5366 36.6764 22.4607 36.7293C22.172 36.9305 22 37.2601 22 37.6119V68.3883C22 68.8387 22.2807 69.2415 22.7033 69.3975L48.6276 78.9631C48.7485 79.0077 48.8745 79.0295 48.9999 79.0295C49.1266 79.0295 49.2526 79.0065 49.372 78.9625L49.3724 78.9631L75.2967 69.3975C75.7193 69.2415 76 68.8388 76 68.3883V37.6119C76 37.1613 75.7193 36.7586 75.2967 36.6026ZM47.9243 76.4104L24.1514 67.6386V39.1554L28.9919 40.9416V53.9752C28.9919 54.4257 29.2726 54.8285 29.6952 54.9845L41.3127 59.2712C41.4336 59.3158 41.5596 59.3377 41.685 59.3377C41.9021 59.3377 42.1172 59.272 42.3002 59.1445C42.5888 58.9433 42.7608 58.6137 42.7608 58.262V46.022L47.9241 47.9272V76.4104H47.9243ZM40.6095 45.2282V56.7183L31.1434 53.2253V41.7353L40.6095 45.2282ZM33.1752 40.1832L41.6852 37.0431L50.1953 40.1832L41.6852 43.3233L33.1752 40.1832ZM49 46.0309L44.7811 44.4742L53.6752 41.1923C54.0978 41.0363 54.3785 40.6336 54.3785 40.1831C54.3785 39.7325 54.0978 39.3298 53.6752 39.1738L42.0576 34.8872C41.8173 34.7986 41.5533 34.7986 41.3128 34.8872L30.056 39.041L26.1832 37.6119L49 29.1929L71.8168 37.612L49 46.0309ZM73.8486 67.6386L50.0758 76.4103V47.9272L73.8486 39.1554V67.6386Z" fill="#2C1D50"/>
    <circle cx="101.5" cy="86.5" r="3.5" fill="#2C1D50"/>
</svg>
