<svg width="112" height="107" viewBox="0 0 112 107" fill="none" xmlns="http://www.w3.org/2000/svg">
    <path d="M2.22755 33.9524C7.81374 46.7316 26.0423 52.4668 31.1565 62.7074C37.2169 43.5052 45.0062 5.17883 27.6797 5.49103C6.02167 5.88126 -3.35864 21.1732 2.22755 33.9524Z" fill="#6478E1"/>
    <path d="M47.5001 2.00003C17.0001 -4.99997 21.0001 23 7.00012 37C-4.49988 47.5001 -0.323615 76.1146 10.5001 80C30.0001 87 47.5001 94.5 60.0001 104.5C72.5001 114.5 93.5001 83 105.5 80C117.5 77 112.5 26.5 91.5001 17.5C70.5001 8.50003 78.0001 9.00003 47.5001 2.00003Z" fill="#2C1D50"/>
    <circle cx="104.5" cy="87.5" r="3.5" fill="#2C1D50"/>
    <g clip-path="url(#clip0)">
        <path d="M45.5 48V31L61 24L76.5 31V46.5C76.5 50.5 74.5 53.5 73.5 54.5L61 63.5C49.8 56.7 46 50.3333 45.5 48Z" fill="white"/>
        <path d="M83.6471 58.8236C84.7908 55.6346 87.6667 49.6594 90.0196 51.2707L91 53.7883L85.6078 65.3695L77.2745 73.4259L78.7451 73.9294V84H66V73.9294L67.4706 72.9224C67.3072 70.0691 67.8627 64.0603 71.3922 62.8518C75.8039 61.3413 78.7451 57.8166 80.2157 57.313C81.3922 56.9102 82.9935 58.1522 83.6471 58.8236Z" fill="white"/>
        <path d="M38.5 59C37.3333 55.8333 34.4 49.9 32 51.5L31 54L36.5 65.5L45 73.5L43.5 74V84H56.5V74L55 73C55.1667 70.1667 54.6 64.2 51 63C46.5 61.5 43.5 58 42 57.5C40.8 57.1 39.1667 58.3333 38.5 59Z" fill="white"/>
        <path d="M76.9135 29.8716L61.4135 23.0868C61.1499 22.9717 60.8504 22.9717 60.5868 23.0868L45.0868 29.8716C44.7104 30.0359 44.467 30.4075 44.4668 30.8182V47.0415C44.4724 50.6874 46.2244 54.11 49.1788 56.2464L59.8914 63.9727C60.553 64.4515 61.4473 64.4515 62.1089 63.9727L72.8215 56.2475C75.7759 54.111 77.5279 50.6885 77.5335 47.0425V30.8182C77.5333 30.4075 77.2899 30.0359 76.9135 29.8716ZM75.4668 47.0425C75.4621 50.0246 74.029 52.824 71.6125 54.5714L61.0001 62.2253L50.3878 54.5714C47.9713 52.824 46.5382 50.0246 46.5335 47.0425V31.494L61.0001 25.1617L75.4668 31.494V47.0425Z" fill="#2C1D50"/>
        <path d="M60.5868 27.5982L49.2201 32.5748C48.8437 32.739 48.6003 33.1106 48.6001 33.5213V47.0425C48.6033 49.3609 49.7176 51.5373 51.5968 52.8953L60.3956 59.242C60.7566 59.5024 61.2436 59.5024 61.6046 59.242L70.4034 52.8953C72.2826 51.5373 73.3969 49.3609 73.4001 47.0425V33.5213C73.3999 33.1106 73.1565 32.739 72.7801 32.5748L61.4134 27.5982C61.1499 27.4832 60.8503 27.4832 60.5868 27.5982ZM71.3334 34.1961V47.0425C71.3303 48.6969 70.535 50.2497 69.1944 51.2192L61.0001 57.1299L52.8058 51.2192C51.4652 50.2497 50.6699 48.6969 50.6668 47.0425V34.1961L61.0001 29.6732L71.3334 34.1961Z" fill="#2C1D50"/>
        <path d="M38.5612 57.3065L36.3261 52.0841C35.8508 51.0074 34.8372 50.266 33.6671 50.1393C32.497 50.0126 31.3482 50.5197 30.6534 51.4697C29.9586 52.4197 29.8234 53.6682 30.2987 54.7449L34.3483 63.6533C34.8947 64.8592 35.6547 65.9564 36.5917 66.8917L42.9601 73.2612C42.6015 73.6413 42.4012 74.1439 42.4001 74.6665V82.9332C42.4001 84.0746 43.3253 84.9999 44.4667 84.9999H55.8334C56.9748 84.9999 57.9 84.0746 57.9 82.9332V74.6665C57.9 73.5251 56.9748 72.5999 55.8334 72.5999V70.6768C55.865 68.2296 55.0666 65.8438 53.5683 63.9085C52.6899 62.7531 51.4927 61.8799 50.1242 61.3965C47.9478 60.4821 45.9463 59.1976 44.2084 57.6C42.5952 56.2714 40.3034 56.1523 38.5612 57.3065ZM55.8334 82.9332H44.4667V74.6665H55.8334V82.9332ZM51.9553 65.1991C53.1597 66.7684 53.7981 68.6989 53.7667 70.6768V72.5999H45.2221L38.0528 65.4306C37.2914 64.6702 36.6735 63.7786 36.229 62.7987L32.1794 53.8903C32.0065 53.5101 32.0387 53.0681 32.2647 52.7169C32.4908 52.3658 32.8798 52.1534 33.2974 52.1533C33.7889 52.1529 34.2331 52.4462 34.4258 52.8983L36.7374 58.2892C37.3512 59.7275 38.236 61.0343 39.3434 62.1384L44.0637 66.8597C44.3232 67.1283 44.7074 67.236 45.0686 67.1415C45.4299 67.0469 45.7121 66.7648 45.8066 66.4035C45.9012 66.0422 45.7935 65.658 45.5248 65.3986L40.8046 60.6773C40.3299 60.2038 39.9032 59.6846 39.5305 59.1273C40.5228 58.3636 41.9111 58.3868 42.8774 59.1831C44.8091 60.9558 47.0417 62.3695 49.4701 63.3577C50.4596 63.7175 51.323 64.3573 51.9553 65.1991Z" fill="#2C1D50"/>
        <path d="M52.7332 77.7667H51.6998C51.1291 77.7667 50.6665 78.2293 50.6665 78.8C50.6665 79.3707 51.1291 79.8333 51.6998 79.8333H52.7332C53.3039 79.8333 53.7665 79.3707 53.7665 78.8C53.7665 78.2293 53.3039 77.7667 52.7332 77.7667Z" fill="#2C1D50"/>
        <path d="M87.6518 63.6533L91.7015 54.7449C92.1994 53.6646 92.0762 52.3997 91.3792 51.4358C90.6822 50.4718 89.5196 49.9585 88.3376 50.0928C87.1557 50.2272 86.138 50.9883 85.6751 52.0841L83.4451 57.2869C81.6969 56.1384 79.404 56.2641 77.7918 57.5969C76.0538 59.1945 74.0523 60.479 71.8759 61.3934C70.5075 61.8769 69.3103 62.7501 68.4318 63.9054C66.9329 65.8415 66.1344 68.2285 66.1668 70.6769V72.5999C65.0254 72.5999 64.1001 73.5252 64.1001 74.6666V82.9332C64.1001 84.0746 65.0254 84.9999 66.1668 84.9999H77.5334C78.6748 84.9999 79.6001 84.0746 79.6001 82.9332V74.6666C79.599 74.1439 79.3987 73.6414 79.04 73.2612L85.4085 66.8918C86.3455 65.9564 87.1055 64.8593 87.6518 63.6533ZM77.5334 82.9332H66.1668V74.6666H77.5334V82.9332ZM76.7781 72.5999H68.2334V70.6769C68.2022 68.6992 68.8406 66.7692 70.0449 65.2002C70.6757 64.3589 71.5373 63.7189 72.5249 63.3578C74.9538 62.3699 77.1867 60.9561 79.1186 59.1831C80.0839 58.3808 81.476 58.3538 82.4717 59.118C82.098 59.6794 81.6691 60.2021 81.1914 60.6783L76.4712 65.3996C76.0796 65.8051 76.0852 66.4496 76.4838 66.8482C76.8823 67.2468 77.5268 67.2524 77.9323 66.8608L82.6526 62.1395C83.76 61.0354 84.6448 59.7286 85.2586 58.2903L87.5702 52.8984C87.7634 52.4468 88.2074 52.1541 88.6986 52.1544C89.1163 52.1545 89.5052 52.3668 89.7313 52.718C89.9573 53.0692 89.9895 53.5112 89.8167 53.8914L85.767 62.7998C85.3225 63.7797 84.7046 64.6713 83.9432 65.4317L76.7781 72.5999Z" fill="#2C1D50"/>
        <path d="M70.3001 77.7667H69.2667C68.696 77.7667 68.2334 78.2293 68.2334 78.8C68.2334 79.3707 68.696 79.8333 69.2667 79.8333H70.3001C70.8708 79.8333 71.3334 79.3707 71.3334 78.8C71.3334 78.2293 70.8708 77.7667 70.3001 77.7667Z" fill="#2C1D50"/>
        <path d="M55.42 44.9066C54.9634 44.5642 54.3157 44.6568 53.9733 45.1133C53.6309 45.5699 53.7234 46.2176 54.18 46.56L58.3133 49.66C58.4922 49.7941 58.7097 49.8666 58.9333 49.8666C58.9918 49.8664 59.0502 49.8616 59.108 49.8522C59.3878 49.8042 59.6356 49.6431 59.7931 49.4068L68.0597 37.0068C68.2646 36.6997 68.2901 36.3065 68.1265 35.9755C67.963 35.6445 67.6352 35.4259 67.2668 35.402C66.8983 35.3781 66.5452 35.5527 66.3403 35.8598L58.6791 47.3515L55.42 44.9066Z" fill="#2C1D50"/>
    </g>
    <defs>
        <clipPath id="clip0">
            <rect width="62" height="62" fill="white" transform="translate(30 23)"/>
        </clipPath>
    </defs>
</svg>
