<svg width="19" height="18" viewBox="0 0 19 18" fill="none" xmlns="http://www.w3.org/2000/svg">
    <path d="M17.982 6.61399C17.923 6.43334 17.7681 6.3043 17.5801 6.27481L11.9762 5.47847L9.45451 0.409196C9.36971 0.239606 9.19644 0.13269 9.00841 0.13269C8.82039 0.13269 8.64711 0.239606 8.56232 0.412883L6.07376 5.49691L0.469909 6.33011C0.281885 6.3596 0.127042 6.48864 0.0680542 6.66929C0.00906631 6.84994 0.0606807 7.04903 0.19709 7.17806L4.26357 11.1192L3.32345 16.7009C3.29027 16.889 3.36769 17.077 3.52253 17.1876C3.60733 17.2503 3.71056 17.2834 3.81379 17.2834C3.8949 17.2834 3.97232 17.265 4.04605 17.2244L9.04897 14.5737L14.0666 17.195C14.1404 17.2318 14.2178 17.2503 14.2952 17.2503C14.568 17.2503 14.7929 17.0254 14.7929 16.7525C14.7929 16.712 14.7892 16.6751 14.7782 16.6383L13.8086 11.0897L17.8492 7.12645C17.993 6.99372 18.0409 6.79464 17.982 6.61399ZM12.9311 10.5625C12.8131 10.6768 12.7615 10.8427 12.791 11.0049L13.6353 15.8456L9.27754 13.5709C9.13376 13.4935 8.96048 13.4971 8.81301 13.5709L4.47003 15.8714L5.2848 11.0233C5.31061 10.8611 5.25899 10.6989 5.14102 10.5846L1.61649 7.16331L6.4793 6.44071C6.64152 6.41491 6.78162 6.31536 6.85167 6.16789L9.0121 1.75486L11.202 6.15683C11.2758 6.3043 11.4159 6.40385 11.5781 6.42965L16.4446 7.12276L12.9311 10.5625Z" fill="#F5BF4C"/>
    <path d="M12 6.2L6.89286 15.4L4.14286 17L4.92857 11.4L1 7L6.5 6.2L9.25 1L12 6.2Z" fill="#F5BF4C"/>
</svg>