<svg viewBox="0 0 124 34" fill="none" xmlns="http://www.w3.org/2000/svg">
    <path d="M35.789 32C37.2357 32 38.47 31.489 39.492 30.467C39.7067 30.2523 39.814 29.991 39.814 29.683C39.814 29.3797 39.7067 29.1207 39.492 28.906C39.2773 28.6913 39.0183 28.584 38.715 28.584C38.407 28.584 38.1457 28.6913 37.931 28.906C37.3383 29.4987 36.6243 29.795 35.789 29.795C34.9537 29.795 34.2397 29.4987 33.647 28.906C33.0543 28.3133 32.758 27.5993 32.758 26.764C32.758 25.924 33.0543 25.2077 33.647 24.615C34.2397 24.0223 34.9537 23.726 35.789 23.726C36.6243 23.726 37.3383 24.0223 37.931 24.615C38.1457 24.8343 38.407 24.944 38.715 24.944C39.0183 24.944 39.2773 24.8343 39.492 24.615C39.7067 24.4003 39.814 24.1413 39.814 23.838C39.814 23.5347 39.7067 23.2757 39.492 23.061C38.47 22.0343 37.2357 21.521 35.789 21.521C34.3423 21.521 33.108 22.0343 32.086 23.061C31.064 24.0783 30.553 25.3127 30.553 26.764C30.553 28.2107 31.064 29.445 32.086 30.467C33.108 31.489 34.3423 32 35.789 32ZM49.0262 26.764C49.0262 27.5993 48.7299 28.3133 48.1372 28.906C47.5399 29.4987 46.8236 29.795 45.9882 29.795C45.1529 29.795 44.4389 29.4987 43.8462 28.906C43.2536 28.3133 42.9572 27.5993 42.9572 26.764C42.9572 25.9287 43.2536 25.2147 43.8462 24.622C44.4389 24.0247 45.1529 23.726 45.9882 23.726C46.8236 23.726 47.5399 24.0247 48.1372 24.622C48.7299 25.2147 49.0262 25.9287 49.0262 26.764ZM40.7522 26.764C40.7522 28.206 41.2632 29.4403 42.2852 30.467C43.3119 31.489 44.5462 32 45.9882 32C47.4349 32 48.6692 31.489 49.6912 30.467C50.7179 29.4403 51.2312 28.206 51.2312 26.764C51.2312 25.3173 50.7179 24.083 49.6912 23.061C48.6692 22.0343 47.4349 21.521 45.9882 21.521C44.5462 21.521 43.3119 22.0343 42.2852 23.061C41.2632 24.083 40.7522 25.3173 40.7522 26.764ZM57.4353 32C56.18 32 55.109 31.5543 54.2223 30.663C53.331 29.7763 52.8853 28.7053 52.8853 27.45V22.627C52.8853 22.3237 52.9926 22.0647 53.2073 21.85C53.422 21.6307 53.6833 21.521 53.9913 21.521C54.2946 21.521 54.5536 21.6307 54.7683 21.85C54.983 22.0647 55.0903 22.3237 55.0903 22.627V27.45C55.0903 28.0987 55.319 28.6517 55.7763 29.109C56.2336 29.5663 56.7866 29.795 57.4353 29.795C58.0793 29.795 58.63 29.5663 59.0873 29.109C59.5493 28.6517 59.7803 28.0987 59.7803 27.45V22.627C59.7803 22.3237 59.8876 22.0647 60.1023 21.85C60.317 21.6307 60.576 21.521 60.8793 21.521C61.1826 21.521 61.444 21.6307 61.6633 21.85C61.878 22.0647 61.9853 22.3237 61.9853 22.627V27.45C61.9853 28.7053 61.5396 29.7763 60.6483 30.663C59.7616 31.5543 58.6906 32 57.4353 32ZM71.0869 25.385C71.0869 25.8377 70.9236 26.2273 70.5969 26.554C70.2749 26.876 69.8853 27.037 69.4279 27.037H66.3969V23.726H69.4279C69.8853 23.726 70.2749 23.8893 70.5969 24.216C70.9236 24.538 71.0869 24.9277 71.0869 25.385ZM68.9729 29.242L71.4089 31.678C71.6236 31.8927 71.8826 32 72.1859 32C72.4893 32 72.7506 31.8927 72.9699 31.678C73.1846 31.4633 73.2919 31.202 73.2919 30.894C73.2919 30.5907 73.1846 30.3317 72.9699 30.117L71.4929 28.64C72.0436 28.29 72.4776 27.8327 72.7949 27.268C73.1263 26.6847 73.2919 26.057 73.2919 25.385C73.2919 24.321 72.9139 23.411 72.1579 22.655C71.4019 21.899 70.4919 21.521 69.4279 21.521H65.2979C64.9899 21.521 64.7286 21.6307 64.5139 21.85C64.2993 22.0647 64.1919 22.3237 64.1919 22.627V30.894C64.1919 31.202 64.2993 31.4633 64.5139 31.678C64.7286 31.8927 64.9899 32 65.2979 32C65.6013 32 65.8603 31.8927 66.0749 31.678C66.2896 31.4633 66.3969 31.202 66.3969 30.894V29.242H68.9729ZM76.044 32C76.3474 32 76.6064 31.8927 76.821 31.678C77.0357 31.4633 77.143 31.202 77.143 30.894V22.627C77.143 22.3237 77.0357 22.0647 76.821 21.85C76.6064 21.6307 76.3474 21.521 76.044 21.521C75.736 21.521 75.4747 21.6307 75.26 21.85C75.0454 22.0647 74.938 22.3237 74.938 22.627V30.894C74.938 31.202 75.0454 31.4633 75.26 31.678C75.4747 31.8927 75.736 32 76.044 32ZM87.348 32C87.6514 32 87.9127 31.8927 88.132 31.678C88.3467 31.4633 88.454 31.202 88.454 30.894C88.454 30.5907 88.3467 30.3317 88.132 30.117C87.9127 29.9023 87.6514 29.795 87.348 29.795H81.559V27.863H85.969C86.2724 27.863 86.5337 27.7557 86.753 27.541C86.9677 27.3263 87.075 27.0673 87.075 26.764C87.075 26.456 86.9677 26.1947 86.753 25.98C86.5337 25.7653 86.2724 25.658 85.969 25.658H81.559V23.726H87.348C87.6514 23.726 87.9127 23.6187 88.132 23.404C88.3467 23.1893 88.454 22.9303 88.454 22.627C88.454 22.3237 88.3467 22.0647 88.132 21.85C87.9127 21.6307 87.6514 21.521 87.348 21.521H80.46C80.152 21.521 79.8907 21.6307 79.676 21.85C79.4614 22.0647 79.354 22.3237 79.354 22.627V30.894C79.354 31.202 79.4614 31.4633 79.676 31.678C79.8907 31.8927 80.152 32 80.46 32H87.348ZM96.9951 25.385C96.9951 25.8377 96.8318 26.2273 96.5051 26.554C96.1831 26.876 95.7935 27.037 95.3361 27.037H92.3051V23.726H95.3361C95.7935 23.726 96.1831 23.8893 96.5051 24.216C96.8318 24.538 96.9951 24.9277 96.9951 25.385ZM94.8811 29.242L97.3171 31.678C97.5318 31.8927 97.7908 32 98.0941 32C98.3975 32 98.6588 31.8927 98.8781 31.678C99.0928 31.4633 99.2001 31.202 99.2001 30.894C99.2001 30.5907 99.0928 30.3317 98.8781 30.117L97.4011 28.64C97.9518 28.29 98.3858 27.8327 98.7031 27.268C99.0345 26.6847 99.2001 26.057 99.2001 25.385C99.2001 24.321 98.8221 23.411 98.0661 22.655C97.3101 21.899 96.4001 21.521 95.3361 21.521H91.2061C90.8981 21.521 90.6368 21.6307 90.4221 21.85C90.2075 22.0647 90.1001 22.3237 90.1001 22.627V30.894C90.1001 31.202 90.2075 31.4633 90.4221 31.678C90.6368 31.8927 90.8981 32 91.2061 32C91.5095 32 91.7685 31.8927 91.9831 31.678C92.1978 31.4633 92.3051 31.202 92.3051 30.894V29.242H94.8811ZM101.952 32C102.256 32 102.515 31.8927 102.729 31.678C102.944 31.4633 103.051 31.202 103.051 30.894V22.627C103.051 22.3237 102.944 22.0647 102.729 21.85C102.515 21.6307 102.256 21.521 101.952 21.521C101.644 21.521 101.383 21.6307 101.168 21.85C100.954 22.0647 100.846 22.3237 100.846 22.627V30.894C100.846 31.202 100.954 31.4633 101.168 31.678C101.383 31.8927 101.644 32 101.952 32ZM105.815 29.795C105.507 29.795 105.246 29.9023 105.031 30.117C104.817 30.3317 104.709 30.5907 104.709 30.894C104.709 31.202 104.817 31.4633 105.031 31.678C105.246 31.8927 105.507 32 105.815 32H110.638C111.511 32 112.258 31.6897 112.878 31.069C113.499 30.4483 113.809 29.7017 113.809 28.829C113.809 27.9563 113.499 27.2097 112.878 26.589C112.258 25.9683 111.511 25.658 110.638 25.658H107.88C107.614 25.658 107.388 25.5647 107.201 25.378C107.01 25.1867 106.914 24.958 106.914 24.692C106.914 24.426 107.01 24.1997 107.201 24.013C107.388 23.8217 107.614 23.726 107.88 23.726H112.703C113.007 23.726 113.268 23.6187 113.487 23.404C113.702 23.1893 113.809 22.9303 113.809 22.627C113.809 22.3237 113.702 22.0647 113.487 21.85C113.268 21.6307 113.007 21.521 112.703 21.521H107.88C107.008 21.521 106.261 21.8313 105.64 22.452C105.02 23.0727 104.709 23.8193 104.709 24.692C104.709 25.5693 105.02 26.316 105.64 26.932C106.261 27.5527 107.008 27.863 107.88 27.863H110.638C110.904 27.863 111.131 27.9587 111.317 28.15C111.509 28.3367 111.604 28.563 111.604 28.829C111.604 29.095 111.509 29.3237 111.317 29.515C111.131 29.7017 110.904 29.795 110.638 29.795H105.815ZM118.072 23.726V30.894C118.072 31.202 118.18 31.4633 118.394 31.678C118.614 31.8927 118.875 32 119.178 32C119.482 32 119.741 31.8927 119.955 31.678C120.17 31.4633 120.277 31.202 120.277 30.894V23.726H122.622C122.926 23.726 123.187 23.6187 123.406 23.404C123.621 23.1893 123.728 22.9303 123.728 22.627C123.728 22.3237 123.621 22.0647 123.406 21.85C123.187 21.6307 122.926 21.521 122.622 21.521H115.734C115.426 21.521 115.165 21.6307 114.95 21.85C114.736 22.0647 114.628 22.3237 114.628 22.627C114.628 22.9303 114.736 23.1893 114.95 23.404C115.165 23.6187 115.426 23.726 115.734 23.726H118.072Z" fill="#525252"/>
    <path d="M15.5892 10.1517C17.6737 10.1517 19.3635 8.49235 19.3635 6.4455C19.3635 4.39864 17.6737 2.73933 15.5892 2.73933C13.5047 2.73933 11.8149 4.39864 11.8149 6.4455C11.8149 8.49235 13.5047 10.1517 15.5892 10.1517Z" fill="#EC641A"/>
    <path d="M0 10.1517C0 10.1517 25.9275 9.82938 0 34C0 34 5.25114 33.1943 10.9946 27.7156C16.738 22.237 20.1841 23.8483 15.4252 30.9384C15.4252 30.9384 18.379 29.4882 20.8405 26.1043C23.3019 22.7204 23.9583 18.6919 20.8405 18.6919C20.8405 18.6919 17.3944 19.1754 20.02 15.4692C22.6455 11.763 25.4352 7.89573 19.3636 0C19.3636 0 22.0154 9.24607 18.5431 10.6351C14.1124 12.4076 6.56393 7.41232 0 10.1517Z" fill="#EC641A"/>
</svg>