<svg width="106" height="100" viewBox="0 0 106 100" fill="none" xmlns="http://www.w3.org/2000/svg">
    <circle cx="96.5" cy="89.5" r="3.5" fill="#F75C02"/>
    <path d="M63.228 31.9524C68.8142 44.7316 87.0428 50.4668 92.157 60.7074C98.2174 41.5052 106.007 3.17883 88.6802 3.49103C67.0222 3.88126 57.6419 19.1732 63.228 31.9524Z" fill="#6478E1"/>
    <path d="M80.3705 16.1126C68.8705 8.11258 43.8705 -7.88742 27.3705 4.61258C4.87045 19.1126 -11.6295 74.1125 10.3705 88.1125C27.9705 99.3125 47.0371 98.4459 54.3705 96.6125C72.3705 106.613 85.8705 92.6125 100.87 68.1125C115.87 43.6125 91.8705 24.1126 80.3705 16.1126Z" fill="#F75C02"/>
    <g clip-path="url(#clip0)">
        <path d="M32.5 49L23.5 40.5L35 30L42.5 27C48.5 39.8 55 32.3333 57.5 27L65.5 30L76.5 39.5L67 49V75H32.5V49Z" fill="white"/>
        <path d="M77.6978 39.2108C77.6849 39.1972 77.6716 39.1839 77.658 39.171L66.0981 28.8968C65.9926 28.8006 65.8695 28.7261 65.7355 28.677L57.3732 25.6882C56.8028 25.481 56.1725 25.7757 55.9654 26.3461C55.928 26.449 55.9063 26.5568 55.9008 26.6661C55.9008 26.9079 55.5382 32.479 49.967 32.5669C44.3629 32.479 44.0113 26.9079 44.0003 26.6661C43.9679 26.0601 43.4503 25.5952 42.8443 25.6276C42.7402 25.6332 42.6373 25.6535 42.5388 25.6882L34.1876 28.71C34.0535 28.759 33.9304 28.8336 33.825 28.9298L22.342 39.171C21.9021 39.589 21.8842 40.2846 22.3022 40.7245C22.3151 40.7381 22.3284 40.7514 22.342 40.7643L31.4844 50.0056V75.2791C31.4844 75.886 31.9764 76.378 32.5833 76.378H67.4167C68.0236 76.378 68.5156 75.886 68.5156 75.2791V50.0056L77.658 40.7643C78.0979 40.3464 78.1158 39.6509 77.6978 39.2108ZM68.4826 46.8739V41.7753C68.4826 41.1684 67.9906 40.6764 67.3837 40.6764C66.7769 40.6764 66.2849 41.1684 66.2849 41.7753V74.1253H33.6382V41.7753C33.6382 41.1684 33.1461 40.6764 32.5393 40.6764C31.9325 40.6764 31.4405 41.1684 31.4405 41.7753V46.8849L24.6825 40.0391L35.1436 30.6769L42.0224 28.1935C42.8745 32.5842 47.1247 35.4529 51.5154 34.6008C54.758 33.9714 57.2933 31.4361 57.9227 28.1935L64.8015 30.6769L75.2295 40.0391L68.4826 46.8739Z" fill="#2C1D50"/>
    </g>
    <defs>
        <clipPath id="clip0">
            <rect width="56" height="56" fill="white" transform="translate(22 23)"/>
        </clipPath>
    </defs>
</svg>
