<svg width="130" height="116" viewBox="0 0 130 116" fill="none" xmlns="http://www.w3.org/2000/svg">
    <path d="M74.616 69.5709C79.5351 55.2273 38.9547 32.0261 24.3025 35.8149C12.231 38.9363 25.0944 53.1524 18 60C9.13195 68.5595 18.7958 97.2512 34.6588 98.6077C50.5217 99.9643 43.551 95.3494 55.5895 102.197C65.2203 107.675 86.8592 95.2221 83.8703 84.6461C82.4191 79.5113 70.6807 81.0458 74.616 69.5709Z" fill="#6478E1"/>
    <path d="M15.9468 62.4244C25.3342 64.7656 41.0917 63.4277 40.0859 93.8638C46.6232 125.303 94.5666 108.413 100.099 98.3789C105.63 88.345 113.006 77.475 122.394 73.2943C131.781 69.1135 133.96 37.3396 120.382 31.1522C106.804 24.9647 106.133 6.73642 90.7111 1.21779C75.2889 -4.30084 62.7171 10.2483 55.8436 18.6098C48.9701 26.9714 23.6579 20.6166 11.4208 31.1522C-0.816377 41.6877 6.55944 60.0831 15.9468 62.4244Z" fill="#F75C02"/>
    <circle cx="120.5" cy="92.5" r="3.5" fill="#F75C02"/>
    <circle cx="53" cy="42" r="7" fill="white"/>
    <rect x="54" y="37" width="28" height="51" rx="2" fill="white"/>
    <rect x="68" y="52" width="32" height="20" rx="2" fill="white"/>
    <path d="M99.1889 50.9796H83.5691V43.4866V39.0636C83.5691 38.9365 83.5626 38.8108 83.5501 38.6869C83.3622 36.8286 81.7993 35.3738 79.9054 35.3738H57.8463H57.8274C57.7434 35.3738 57.6625 35.3866 57.5861 35.4101C56.2942 34.5211 54.7336 34 53.0542 34C48.6131 34 45 37.6389 45 42.1117C45 46.4772 48.4425 50.0464 52.7368 50.2151V57.9493C52.7368 58.4072 53.1053 58.7784 53.56 58.7784C54.0148 58.7784 54.3833 58.4072 54.3833 57.9493V50.1108C57.4691 49.5923 59.9652 47.3016 60.8037 44.3156H81.9226V50.9795H69.0106C68.955 50.9795 68.9003 50.9829 68.8459 50.9879V48.1308C68.8459 47.6729 68.4775 47.3016 68.0227 47.3016C67.5679 47.3016 67.1995 47.6729 67.1995 48.1308V52.8036V71.4862V76.2235C67.1995 76.6813 67.5679 77.0526 68.0227 77.0526C68.4775 77.0526 68.8459 76.6813 68.8459 76.2235V73.3018C68.9003 73.3068 68.955 73.3102 69.0106 73.3102H81.9226V80.0581H54.3833V56.4971C54.3833 56.0392 54.0148 55.668 53.56 55.668C53.1053 55.668 52.7368 56.0392 52.7368 56.4971V80.8872V85.3102C52.7368 87.3448 54.3803 89 56.4004 89H79.9053C81.7992 89 83.3622 87.5452 83.5501 85.6869C83.5626 85.563 83.5691 85.4374 83.5691 85.3101V80.8871V73.3101H88.5456C89.0004 73.3101 89.3688 72.9389 89.3688 72.481C89.3688 72.0231 89.0004 71.6519 88.5456 71.6519H69.0106C68.9213 71.6519 68.8459 71.5759 68.8459 71.486V52.8035C68.8459 52.7136 68.9213 52.6377 69.0106 52.6377H99.1889C99.2781 52.6377 99.3535 52.7136 99.3535 52.8035V71.486C99.3535 71.5759 99.2781 71.6519 99.1889 71.6519H82.1489C81.6941 71.6519 81.3256 72.0231 81.3256 72.481C81.3256 72.9389 81.6941 73.3101 82.1489 73.3101H99.1889C100.188 73.3101 101 72.4918 101 71.486V52.8035C101 51.7977 100.188 50.9796 99.1889 50.9796ZM53.0542 48.565C49.521 48.565 46.6465 45.6701 46.6465 42.1117C46.6465 38.5532 49.521 35.6583 53.0542 35.6583C56.5874 35.6583 59.4619 38.5533 59.4619 42.1117C59.4619 45.67 56.5874 48.565 53.0542 48.565ZM61.0881 42.6575C61.1 42.4769 61.1084 42.2953 61.1084 42.1117C61.1084 40.19 60.4401 38.4233 59.3271 37.032H79.9053C80.8786 37.032 81.6931 37.7298 81.8815 38.6546C81.9084 38.7867 81.9226 38.9235 81.9226 39.0635V42.6574L61.0881 42.6575ZM56.4004 87.3418C55.2882 87.3418 54.3833 86.4304 54.3833 85.3102V81.7163H81.9226V85.3102C81.9226 85.4503 81.9084 85.5871 81.8815 85.7192C81.6931 86.644 80.8786 87.3418 79.9053 87.3418H56.4004Z" fill="#2C1D50"/>
    <path d="M91.0007 60.5615C91.5991 60.8395 92.3018 61 93.053 61C95.2293 61 97 59.6543 97 58C97 56.3457 95.2293 55 93.053 55C92.3018 55 91.5991 55.1605 91.0007 55.4385C90.3859 55.1536 89.6766 55 88.947 55C86.7707 55 85 56.3457 85 58C85 59.6543 86.7707 61 88.947 61C89.6766 61 90.386 60.8464 91.0007 60.5615ZM95.3316 58C95.3316 58.9549 94.3095 59.7318 93.0531 59.7318C91.7968 59.7318 90.7748 58.955 90.7748 58C90.7748 57.045 91.7968 56.2682 93.0531 56.2682C94.3094 56.2682 95.3316 57.045 95.3316 58ZM86.6685 58C86.6685 57.0451 87.6906 56.2682 88.947 56.2682C89.2192 56.2682 89.4862 56.3055 89.7371 56.376C89.3385 56.8445 89.1062 57.4018 89.1062 58C89.1062 58.5982 89.3386 59.1555 89.7371 59.624C89.4862 59.6944 89.2192 59.7318 88.947 59.7318C87.6906 59.7318 86.6685 58.9549 86.6685 58Z" fill="#2C1D50"/>
    <path d="M80.3262 61C81.2491 61 82 60.3364 82 59.5208V56.4792C82 55.6636 81.2491 55 80.3262 55H73.6738C72.7509 55 72 55.6636 72 56.4792V59.5208C72 60.3364 72.7509 61 73.6738 61H80.3262ZM73.5217 59.5208V56.4792C73.5217 56.4063 73.5913 56.3447 73.6738 56.3447H80.3262C80.4087 56.3447 80.4783 56.4063 80.4783 56.4792V59.5208C80.4783 59.5937 80.4087 59.6553 80.3262 59.6553H73.6738C73.5912 59.6553 73.5217 59.5937 73.5217 59.5208Z" fill="#2C1D50"/>
    <path d="M71 64.8665V66.1335C71 67.1627 71.7973 68 72.7776 68H96.2224C97.2027 68 98 67.1627 98 66.1335V64.8665C98 63.8373 97.2027 63 96.2224 63H72.7776C71.7973 63 71 63.8373 71 64.8665ZM72.616 64.8665C72.616 64.7745 72.69 64.6968 72.7776 64.6968H96.2224C96.31 64.6968 96.384 64.7745 96.384 64.8665V66.1335C96.384 66.2255 96.31 66.3032 96.2224 66.3032H72.7776C72.69 66.3032 72.616 66.2255 72.616 66.1335V64.8665Z" fill="#2C1D50"/>
    <path d="M54.665 40.2655L52.3891 42.9099L51.3696 41.5475C51.1033 41.1921 50.6191 41.135 50.2878 41.4207C49.9564 41.7062 49.9034 42.2259 50.1695 42.5815L51.7483 44.6913C51.8885 44.8787 52.0979 44.9912 52.3218 44.9996C52.3306 44.9999 52.3396 45 52.3484 45C52.5627 45 52.7678 44.904 52.9137 44.7345L55.7958 41.3858C56.0842 41.0508 56.0647 40.5284 55.7525 40.2191C55.4403 39.9097 54.9533 39.9305 54.665 40.2655Z" fill="#2C1D50"/>
</svg>
