<svg width="18" height="12" viewBox="0 0 18 12" fill="none" xmlns="http://www.w3.org/2000/svg">
    <path d="M3.72 11.8C2.62667 11.8 1.82667 11.5467 1.32 11.04C0.84 10.5067 0.6 9.85333 0.6 9.08V8.32C0.6 7.6 0.706667 6.88 0.92 6.16C1.13333 5.41333 1.41333 4.69333 1.76 4C2.13333 3.30666 2.57333 2.65333 3.08 2.04C3.58667 1.42666 4.13333 0.879998 4.72 0.4H8.16C7.30667 1.22667 6.58667 2.04 6 2.84C5.41333 3.64 4.97333 4.53333 4.68 5.52C5.45333 5.68 6.01333 6.01333 6.36 6.52C6.70667 7 6.88 7.56 6.88 8.2V9.08C6.88 9.85333 6.62667 10.5067 6.12 11.04C5.64 11.5467 4.84 11.8 3.72 11.8ZM12.72 11.8C11.6267 11.8 10.8267 11.5467 10.32 11.04C9.84 10.5067 9.6 9.85333 9.6 9.08V8.32C9.6 7.6 9.70667 6.88 9.92 6.16C10.1333 5.41333 10.4133 4.69333 10.76 4C11.1333 3.30666 11.5733 2.65333 12.08 2.04C12.5867 1.42666 13.1333 0.879998 13.72 0.4H17.16C16.3067 1.22667 15.5867 2.04 15 2.84C14.4133 3.64 13.9733 4.53333 13.68 5.52C14.4533 5.68 15.0133 6.01333 15.36 6.52C15.7067 7 15.88 7.56 15.88 8.2V9.08C15.88 9.85333 15.6267 10.5067 15.12 11.04C14.64 11.5467 13.84 11.8 12.72 11.8Z" fill="#151515"/>
</svg>