<svg width="23" height="34" viewBox="0 0 23 34" fill="none" xmlns="http://www.w3.org/2000/svg">
    <path d="M15.5892 10.1517C17.6737 10.1517 19.3635 8.49235 19.3635 6.4455C19.3635 4.39864 17.6737 2.73933 15.5892 2.73933C13.5047 2.73933 11.8149 4.39864 11.8149 6.4455C11.8149 8.49235 13.5047 10.1517 15.5892 10.1517Z" fill="#EC641A"/>
    <path d="M0 10.1517C0 10.1517 25.9275 9.82938 0 34C0 34 5.25114 33.1943 10.9946 27.7156C16.738 22.237 20.1841 23.8483 15.4252 30.9384C15.4252 30.9384 18.379 29.4882 20.8405 26.1043C23.3019 22.7204 23.9583 18.6919 20.8405 18.6919C20.8405 18.6919 17.3944 19.1754 20.02 15.4692C22.6455 11.763 25.4352 7.89573 19.3636 0C19.3636 0 22.0154 9.24607 18.5431 10.6351C14.1124 12.4076 6.56393 7.41232 0 10.1517Z" fill="#EC641A"/>
</svg>